<svg xmlns="http://www.w3.org/2000/svg" viewBox="0 0 22 22">
 <g transform="translate(0,-1030.3622)">
  <path d="m 1.625 3 c -0.347 0.063 -0.625 0.397 -0.625 0.75 l 0 14.5 c 0.006 0.391 0.359 0.744 0.75 0.75 l 18.5 0 c 0.391 -0.01 0.744 -0.359 0.75 -0.75 l 0 -12.438 c -0.006 -0.391 -0.359 -0.806 -0.75 -0.813 l -7.25 0 l 0 -1.25 c -0.006 -0.391 -0.359 -0.744 -0.75 -0.75 l -10.625 0 z m 7.875 5 l 5 0 c 0.277 0 0.5 0.223 0.5 0.5 l 0 1 l 0 5 c 0 0.069 -0.006 0.127 -0.031 0.188 c -0.091 0.741 -0.703 1.313 -1.469 1.313 c -0.828 0 -1.5 -0.672 -1.5 -1.5 c 0 -0.828 0.672 -1.5 1.5 -1.5 c 0.173 0 0.346 0.04 0.5 0.094 l 0 -3.094 l -4 0 l 0 4.5 c 0 0.069 -0.006 0.127 -0.031 0.188 c -0.091 0.741 -0.703 1.313 -1.469 1.313 c -0.828 0 -1.5 -0.672 -1.5 -1.5 c 0 -0.828 0.672 -1.5 1.5 -1.5 c 0.173 0 0.346 0.04 0.5 0.094 l 0 -3.594 l 0 -1 c 0 -0.277 0.223 -0.5 0.5 -0.5 z" transform="translate(0,1030.3622)" style="visibility:visible;fill:#66bb6a;fill-opacity:1;stroke:none;display:inline;color:#000;fill-rule:nonzero"/>
 </g>
</svg>
