<svg xmlns="http://www.w3.org/2000/svg" viewBox="0 0 22 22">
 <g transform="translate(0,-1030.3622)">
  <path d="m 1.625 3 c -0.347 0.063 -0.625 0.397 -0.625 0.75 l 0 14.5 c 0.006 0.391 0.359 0.744 0.75 0.75 l 18.5 0 c 0.391 -0.01 0.744 -0.359 0.75 -0.75 l 0 -12.438 c -0.006 -0.391 -0.359 -0.806 -0.75 -0.813 l -7.25 0 l 0 -1.25 c -0.006 -0.391 -0.359 -0.744 -0.75 -0.75 l -10.625 0 z m 11.375 4 c 1.657 0 3 1.343 3 3 c 0 1.657 -1.343 3 -3 3 c -0.345 0 -0.66 -0.08 -0.969 -0.188 l -3.5 3.5 c -0.196 0.196 -0.523 0.196 -0.719 0 l -0.688 -0.719 c -0.196 -0.196 -0.196 -0.523 0 -0.719 l 3.313 -3.313 c -0.278 -0.455 -0.438 -0.99 -0.438 -1.563 c 0 -1.657 1.343 -3 3 -3 z m 0 1 c -1.105 0 -2 0.895 -2 2 c 0 1.105 0.895 2 2 2 c 1.105 0 2 -0.895 2 -2 c 0 -1.105 -0.895 -2 -2 -2 z" transform="translate(0,1030.3622)" style="visibility:visible;fill:#ef5350;fill-opacity:1;stroke:none;display:inline;color:#000;fill-rule:nonzero"/>
 </g>
</svg>
