<svg xmlns="http://www.w3.org/2000/svg" viewBox="0 0 22 22">
 <g transform="translate(0,-1030.3622)">
  <path d="m 1.625 3 c -0.347 0.063 -0.625 0.397 -0.625 0.75 l 0 14.5 c 0.006 0.391 0.359 0.744 0.75 0.75 l 18.5 0 c 0.391 -0.01 0.744 -0.359 0.75 -0.75 l 0 -12.438 c -0.006 -0.391 -0.359 -0.806 -0.75 -0.813 l -7.25 0 l 0 -1.25 c -0.006 -0.391 -0.359 -0.744 -0.75 -0.75 l -10.625 0 z m 11.03 4 c 1.204 0 2.188 0.853 2.188 1.906 c -0.014 0.368 -0.023 0.774 -0.281 1.781 c -0.048 0.132 -0.129 0.258 -0.25 0.406 c -0.108 0.133 -0.248 0.268 -0.375 0.406 c -0.028 0.253 -0.026 0.528 0 0.781 c 0.351 0.265 0.975 0.495 1.563 0.719 c 0.303 0.115 0.593 0.248 0.813 0.375 c 0.11 0.063 0.206 0.107 0.281 0.188 c 0.07 0.075 0.118 0.176 0.125 0.281 c 0 0.007 0 0.021 0 0.031 l 0.281 1.844 l 0 0.031 c 0 0.229 -0.17 0.412 -0.406 0.563 c -0.236 0.149 -0.548 0.271 -0.938 0.375 c -0.778 0.208 -1.834 0.313 -3 0.313 c -1.166 0 -2.222 -0.104 -3 -0.313 c -0.389 -0.104 -0.702 -0.226 -0.938 -0.375 c -0.236 -0.149 -0.406 -0.333 -0.406 -0.563 l 0 -0.031 l 0.25 -1.844 c 0 -0.011 0.031 -0.021 0.031 -0.031 c 0.015 -0.219 0.164 -0.403 0.375 -0.531 c 0.221 -0.135 0.51 -0.233 0.813 -0.344 c 0.581 -0.213 1.205 -0.437 1.563 -0.688 c 0.046 -0.294 0.04 -0.539 0 -0.813 c -0.13 -0.13 -0.269 -0.284 -0.375 -0.406 c -0.119 -0.137 -0.173 -0.247 -0.219 -0.375 l -0.031 0 c -0.229 -0.967 -0.241 -1.42 -0.25 -1.781 c 0 -1.053 0.984 -1.906 2.188 -1.906 z m -4.094 0.344 c 0.448 0 0.872 0.174 1.188 0.406 l 0.094 0.031 l -0.063 0.094 c -0.057 0.161 -0.094 0.322 -0.094 0.469 c 0.009 0.35 0.055 0.763 0.281 1.719 c 0.034 0.093 0.011 0.173 0.031 0.281 l 0.031 0.031 l -0.031 0.031 c -0.061 0.132 -0.195 0.37 -0.375 0.594 c -0.001 0.006 0.001 0.021 0 0.031 c -0.024 0.214 -0.023 0.441 0 0.656 c 0.118 0.085 0.281 0.166 0.469 0.25 l 0.25 0.125 l -0.25 0.125 c -0.474 0.227 -1.095 0.407 -1.563 0.594 c -0.234 0.094 -0.43 0.186 -0.563 0.281 c -0.132 0.095 -0.188 0.174 -0.188 0.25 l -0.25 1.844 c 0 0.007 0 0.021 0 0.031 c -0.002 0.048 -0.014 0.108 -0.031 0.156 c -0.01 0.027 -0.008 0.063 -0.031 0.094 c -0.012 0.015 -0.066 0.015 -0.094 0.031 c -0.022 0.012 -0.057 0.031 -0.094 0.031 c -0.668 -0.063 -1.238 -0.188 -1.625 -0.344 c -0.196 -0.079 -0.353 -0.175 -0.469 -0.281 c -0.116 -0.107 -0.188 -0.202 -0.188 -0.344 l 0 -0.031 l 0.25 -1.5 c 0 -0.011 -0.001 -0.021 0 -0.031 c 0.014 -0.177 0.142 -0.334 0.313 -0.438 c 0.181 -0.11 0.408 -0.19 0.656 -0.281 c 0.478 -0.174 0.989 -0.356 1.281 -0.563 c 0.036 -0.235 0.032 -0.468 0 -0.688 c -0.105 -0.104 -0.226 -0.213 -0.313 -0.313 c -0.099 -0.114 -0.18 -0.207 -0.219 -0.313 l 0 -0.031 c -0.188 -0.793 -0.18 -1.141 -0.188 -1.438 c 0 -0.864 0.793 -1.563 1.781 -1.563 z" transform="translate(0,1030.3622)" style="visibility:visible;fill:#ef5350;fill-opacity:1;stroke:none;display:inline;color:#000;fill-rule:nonzero"/>
 </g>
</svg>
