<svg xmlns="http://www.w3.org/2000/svg" viewBox="0 0 22 22">
 <path d="m 1 10 2 0 9 0 1 1 0 1 6 0 0 0 2 0 0 -6.188 c -0.006 -0.391 -0.359 -0.744 -0.75 -0.75 l -7.25 0 0 -1.313 c -0.006 -0.391 -0.359 -0.744 -0.75 -0.75 l -10.5 0 c -0.042 -0.003 -0.083 -0.003 -0.125 0 -0.347 0.064 -0.625 0.397 -0.625 0.75 z" style="visibility:visible;fill:#f06292;opacity:0.4;fill-opacity:1;stroke:none;display:inline;color:#000;fill-rule:nonzero"/>
 <rect width="18" height="10" x="2" y="2" style="fill:#eae7d1;fill-opacity:1;stroke:none"/>
 <rect width="14" height="1" x="4" y="10" style="fill:#7a7a68;fill-opacity:1;stroke:none"/>
 <path d="m 1 10 l 0 8.25 c 0.006 0.391 0.359 0.744 0.75 0.75 l 18.5 0 c 0.391 -0.006 0.744 -0.359 0.75 -0.75 l 0 -6.25 l -2 0 l -4 0 l -2 0 l 0 -1 l -1 -1 l -9 0 l -2 0 z" style="visibility:visible;fill:#f06292;opacity:1;fill-opacity:1;stroke:none;display:inline;color:#000;fill-rule:nonzero"/>
 <rect width="14" height="1" x="4" y="8" style="fill:#7a7a68;fill-opacity:1;stroke:none"/>
 <rect width="14" height="1" x="4" y="4" style="fill:#7a7a68;fill-opacity:1;stroke:none"/>
 <rect y="6" x="4" height="1" width="14" style="fill:#7a7a68;fill-opacity:1;stroke:none"/>
</svg>
