<svg xmlns="http://www.w3.org/2000/svg" viewBox="0 0 22 22">
 <path d="m 0.625 8 c -0.347 0.064 -0.625 0.397 -0.625 0.75 l 0 12.5 c 0.006 0.391 0.359 0.744 0.75 0.75 l 12.25 0 l 0 -3 l -4 0 l 0 -6 l 4 0 l 0 -3 l -3 0 l 0 -1.25 c -0.006 -0.391 -0.359 -0.744 -0.75 -0.75 l -8.625 0 z" style="visibility:visible;fill:#f06292;opacity:0.4;fill-opacity:1;stroke:none;display:inline;color:#000;fill-rule:nonzero"/>
 <path d="m 4.625 0 c -0.347 0.064 -0.625 0.397 -0.625 0.75 l 0 12.5 c 0.006 0.391 0.359 0.744 0.75 0.75 l 4.25 0 l 0 -1 l 4 0 l 0 -4 l 6 0 l 0 4 l 3 0 l 0 -10.188 c -0.006 -0.391 -0.359 -0.806 -0.75 -0.813 l -7.25 0 l 0 -1.25 c -0.006 -0.391 -0.359 -0.744 -0.75 -0.75 l -8.625 0 z" style="visibility:visible;fill:#f06292;fill-opacity:1;stroke:none;display:inline;color:#000;fill-rule:nonzero"/>
 <path d="m 22 14 -4 0 0 -4 -4 0 0 4 -4 0 0 4 4 0 0 4 4 0 0 -4 4 0 z" style="fill:#859900"/>
</svg>
