<svg xmlns="http://www.w3.org/2000/svg" width="64" height="64" viewBox="0 0 51.2 51.2">
 <path d="m 4.85 8 c -0.904 0.089 -1.665 0.942 -1.65 1.85 l 0 31.499 c -0.011 0.972 0.878 1.861 1.85 1.85 l 41.1 0 c 0.972 0.011 1.861 -0.878 1.85 -1.85 l 0 -28.3 c 0.011 -0.972 -0.878 -1.861 -1.85 -1.85 l -15.75 0 0 -1.35 c 0.011 -0.955 -0.845 -1.835 -1.8 -1.85 l -23.55 0 c -0.067 -0.004 -0.133 -0.004 -0.2 0 z" style="visibility:visible;fill:#bdbdbd;opacity:0.4;fill-opacity:1;stroke:none;display:inline;color:#000;fill-rule:nonzero"/>
 <path d="m 6.4 6.4 38.4 0 0 20.8 -38.4 0 z" style="fill:#eae7d1;fill-opacity:1"/>
 <path d="m 9.6 23.2 32 0 0 1.6 -32 0 z" style="fill:#7a7a68;fill-opacity:1"/>
 <path d="m 4.85 22.401 c -0.904 0.089 -1.665 0.942 -1.65 1.85 l 0 17.1 c -0.011 0.972 0.878 1.861 1.85 1.85 l 41.1 0 c 0.972 0.011 1.861 -0.878 1.85 -1.85 l 0 -13.899 c 0.011 -0.972 -0.878 -1.861 -1.85 -1.85 l -15.75 0 0 -1.35 c 0.011 -0.955 -0.845 -1.835 -1.8 -1.85 l -23.55 0 c -0.067 -0.004 -0.133 -0.004 -0.2 0 z" style="visibility:visible;fill:#bdbdbd;fill-opacity:1;stroke:none;display:inline;color:#000;fill-rule:nonzero"/>
 <path d="m 9.6 13.6 32 0 0 1.6 -32 0 z" style="fill:#7a7a68;fill-opacity:1"/>
 <path d="m 9.6 16.8 32 0 0 1.6 -32 0 z" style="fill:#7a7a68;fill-opacity:1"/>
 <path d="m 9.6 20 32 0 0 1.6 -32 0 z" style="fill:#7a7a68;fill-opacity:1"/>
 <path d="m 9.6 10.4 32 0 0 1.6 -32 0 z" style="fill:#7a7a68;fill-opacity:1"/>
 <path d="m 51.2 38.4 c 0.094 4.541 -2.325 8.778 -6.322 11.08 -4 2.297 -8.953 2.297 -12.95 0 -3.997 -2.3 -6.416 -6.538 -6.322 -11.08 -0.094 -4.541 2.325 -8.778 6.322 -11.07 3.997 -2.3 8.95 -2.3 12.95 0 3.997 2.297 6.416 6.534 6.322 11.07 z" style="fill:#859900;fill-rule:evenodd"/>
 <path d="m 45.4 30.352 c -0.272 0.097 -0.5 0.278 -0.656 0.519 l -6.975 6.753 -4.353 -4.156 c -0.175 -0.578 -0.722 -0.959 -1.328 -0.928 -0.606 0.031 -1.113 0.472 -1.222 1.066 -0.106 0.591 0.209 1.178 0.766 1.419 l 5.244 5.197 c 0.503 0.459 1.281 0.459 1.784 0 l 7.869 -7.794 c 0.306 -0.403 0.35 -0.95 0.106 -1.394 -0.244 -0.447 -0.725 -0.712 -1.234 -0.681 z" style="fill:#fff"/>
</svg>
