<svg xmlns="http://www.w3.org/2000/svg" viewBox="0 0 22 22">
 <path d="m 1 10 2 0 9 0 1 1 0 1 6 0 0 0 2 0 0 -6.188 c -0.006 -0.391 -0.359 -0.744 -0.75 -0.75 l -7.25 0 0 -1.313 c -0.006 -0.391 -0.359 -0.744 -0.75 -0.75 l -10.5 0 c -0.042 -0.003 -0.083 -0.003 -0.125 0 -0.347 0.064 -0.625 0.397 -0.625 0.75 z" style="visibility:visible;fill:#42a5f5;opacity:0.4;fill-opacity:1;stroke:none;display:inline;color:#000;fill-rule:nonzero"/>
 <rect width="18" height="10" x="2" y="2" style="fill:#eae7d1;fill-opacity:1;stroke:none"/>
 <rect width="14" height="1" x="4" y="10" style="fill:#7a7a68;fill-opacity:1;stroke:none"/>
 <path d="m 1 10 l 0 8.25 c 0.006 0.391 0.359 0.744 0.75 0.75 l 18.5 0 c 0.391 -0.006 0.744 -0.359 0.75 -0.75 l 0 -6.25 l -2 0 l -4 0 l -2 0 l 0 -1 l -1 -1 l -9 0 l -2 0 z" style="visibility:visible;fill:#42a5f5;opacity:1;fill-opacity:1;stroke:none;display:inline;color:#000;fill-rule:nonzero"/>
 <rect width="14" height="1" x="4" y="8" style="fill:#7a7a68;fill-opacity:1;stroke:none"/>
 <rect width="14" height="1" x="4" y="4" style="fill:#7a7a68;fill-opacity:1;stroke:none"/>
 <rect y="6" x="4" height="1" width="14" style="fill:#7a7a68;fill-opacity:1;stroke:none"/>
 <g transform="matrix(1,0,0,0.99457,-1,-0.97779473)">
  <path d="m 20.95 13.17 a 4.881 4.831 0 1 1 -9.76 0 4.881 4.831 0 1 1 9.76 0 z" transform="translate(0.811,3.999)" style="fill:#859900;fill-rule:evenodd"/>
  <path d="m 19.55 14.07 a 0.5 0.5 0 0 0 -0.25 0.2 l -2.66 2.6 -1.66 -1.6 a 0.5 0.5 0 1 0 -0.68 0.6 l 2 2 a 0.5 0.5 0 0 0 0.68 0 l 3 -3 a 0.5 0.5 0 0 0 -0.43 -0.8 z" style="fill:#fff;color:#000"/>
 </g>
</svg>
