<svg xmlns="http://www.w3.org/2000/svg" viewBox="0 0 48 48">
 <path d="m 1.188 16 c -0.676 0.144 -1.203 0.809 -1.188 1.5 l 0 27 c 0 0.785 0.715 1.5 1.5 1.5 l 26.5 0 l 0 -6 l -8 0 l 0 -12 l 8 0 l 0 -8 l 9.875 0 c -0.231 -0.546 -0.776 -0.969 -1.375 -0.969 l -14.5 0 l 0 -1.531 c 0 -0.785 -0.715 -1.5 -1.5 -1.5 l -19 0 c -0.104 -0.011 -0.209 -0.011 -0.313 0 z" style="visibility:visible;fill:#c4905e;opacity:0.4;fill-opacity:1;stroke:none;display:inline;color:#000;fill-rule:nonzero"/>
 <path d="m 11.188 0 c -0.676 0.144 -1.203 0.809 -1.188 1.5 l 0 27 c 0 0.785 0.715 1.5 1.5 1.5 l 8.5 0 l 0 -2 l 8 0 l 0 -8 l 12 0 l 0 8 l 8 0 l 0 -23.469 c 0 -0.785 -0.715 -1.5 -1.5 -1.5 l -14.5 0 l 0 -1.531 c 0 -0.785 -0.715 -1.5 -1.5 -1.5 l -19 0 c -0.104 -0.011 -0.209 -0.011 -0.313 0 z" style="visibility:visible;fill:#c4905e;fill-opacity:1;stroke:none;display:inline;color:#000;fill-rule:nonzero"/>
 <path d="m 46 30 l -8 0 l 0 -8 l -8 0 l 0 8 l -8 0 l 0 8 l 8 0 l 0 8 l 8 0 l 0 -8 l 8 0 Z" style="fill:#859900"/>
</svg>
