<svg xmlns="http://www.w3.org/2000/svg" viewBox="0 0 48 48">
 <path d="m 5.188 8 c -0.676 0.144 -1.203 0.809 -1.188 1.5 l 0 28 c 0 0.785 0.715 1.5 1.5 1.5 l 19.5 0 0 -8 7 0 0 -7 8 0 0 7 4 0 0 -18.469 c 0 -0.785 -0.715 -1.5 -1.5 -1.5 l -14.5 0 l 0 -1.531 c 0 -0.785 -0.715 -1.5 -1.5 -1.5 l -21 0 c -0.104 -0.011 -0.209 -0.011 -0.313 0 z" style="visibility:visible;fill:#bdbdbd;fill-opacity:1;stroke:none;display:inline;color:#000"/>
 <path d="m 34 26 l 0 7 l -7 0 l 0 4 l 7 0 l 0 7 l 4 0 l 0 -7 l 7 0 l 0 -4 l -7 0 l 0 -7 l -4 0 z" style="fill:#859900;fill-opacity:1;stroke:none;fill-rule:evenodd"/>
</svg>
