<svg xmlns="http://www.w3.org/2000/svg" viewBox="0 0 48 48">
 <path d="m 5.188 8 c -0.676 0.144 -1.203 0.809 -1.188 1.5 l 0 28 c 0 0.785 0.715 1.5 1.5 1.5 l 37 0 c 0.785 0 1.5 -0.715 1.5 -1.5 l 0 -24.969 c 0 -0.785 -0.715 -1.5 -1.5 -1.5 l -14.5 0 0 -1.531 c 0 -0.785 -0.715 -1.5 -1.5 -1.5 l -21 0 c -0.104 -0.011 -0.209 -0.011 -0.313 0 z" style="visibility:visible;fill:#7e57c2;opacity:0.4;fill-opacity:1;stroke:none;display:inline;color:#000"/>
 <path d="m 8 6 32 0 0 19 -32 0 z" style="fill:#eae7d1;fill-opacity:1"/>
 <path d="m 12 21 24 0 0 1 -24 0 z" style="fill:#7a7a68;fill-opacity:1"/>
 <path d="m 6 20 c -2 0 -2 2 -2 2 l 0 1.594 l 0 13.906 a 1.5 1.5 0 0 0 1.5 1.5 l 37 0 a 1.5 1.5 0 0 0 1.5 -1.5 l 0 -10.5 l 0 -2 c 0 -2 -2 -2 -2 -2 l -1 0 l -2 0 l -3 0 l -8 0 l 0 -1 c 0 -2 -2 -2 -2 -2 l -18 0 l -1 0 l -1 0 z" style="visibility:visible;fill:#7e57c2;fill-opacity:1;stroke:none;display:inline;color:#000"/>
 <path d="m 12 12 24 0 0 1 -24 0 z" style="fill:#7a7a68;fill-opacity:1"/>
 <path d="m 12 9 24 0 0 1 -24 0 z" style="fill:#7a7a68;fill-opacity:1"/>
 <path d="m 12 15 24 0 0 1 -24 0 z" style="fill:#7a7a68;fill-opacity:1"/>
 <path d="m 12 18 24 0 0 1 -24 0 z" style="fill:#7a7a68;fill-opacity:1"/>
 <path d="m 43.523 34.34 c 0.07 3.496 -1.773 6.758 -4.824 8.527 -3.047 1.77 -6.824 1.77 -9.875 0 -3.051 -1.77 -4.895 -5.03 -4.82 -8.527 -0.074 -3.5 1.77 -6.762 4.82 -8.531 3.051 -1.77 6.828 -1.77 9.875 0 3.051 1.77 4.895 5.03 4.824 8.531 z" style="fill:#859900;fill-rule:evenodd"/>
 <path d="m 39.1 28.14 c -0.207 0.074 -0.383 0.215 -0.5 0.398 l -5.32 5.199 -3.32 -3.199 c -0.133 -0.441 -0.551 -0.738 -1.016 -0.715 -0.461 0.027 -0.844 0.367 -0.93 0.82 -0.082 0.457 0.16 0.91 0.586 1.094 l 4 4 c 0.383 0.359 0.977 0.359 1.359 0 l 6 -6 c 0.234 -0.309 0.266 -0.73 0.082 -1.074 -0.184 -0.344 -0.555 -0.547 -0.941 -0.523 z" style="fill:#fff"/>
</svg>
