<svg xmlns="http://www.w3.org/2000/svg" viewBox="0 0 22 22">
 <g transform="translate(0,-1030.3622)">
  <path d="m 1.625 3 c -0.347 0.063 -0.625 0.397 -0.625 0.75 l 0 14.5 c 0.006 0.391 0.359 0.744 0.75 0.75 l 18.5 0 c 0.391 -0.01 0.744 -0.359 0.75 -0.75 l 0 -12.438 c -0.006 -0.391 -0.359 -0.806 -0.75 -0.813 l -7.25 0 l 0 -1.25 c -0.006 -0.391 -0.359 -0.744 -0.75 -0.75 l -10.625 0 z m 4.375 4 l 10 0 c 0.554 0 1 0.446 1 1 l 0 7.813 l 0 0.188 c 0 0.554 -0.446 1 -1 1 l -1.25 0 l -8.25 0 l -0.5 0 c -0.554 0 -1 -0.446 -1 -1 l 0 -2 l 0 -6 c 0 -0.554 0.446 -1 1 -1 z m 1 1 c -0.554 0 -1 0.446 -1 1 l 0 4 l 3 -3 l 2 3 l 2 -2 l 3 3.625 l 0 -5.625 c 0 -0.554 -0.446 -1 -1 -1 l -8 0 z" transform="translate(0,1030.3622)" style="visibility:visible;fill:#8d6e63;fill-opacity:1;stroke:none;display:inline;color:#000;fill-rule:nonzero"/>
 </g>
</svg>
