<svg xmlns="http://www.w3.org/2000/svg" viewBox="0 0 22 22">
 <g transform="translate(0,-1030.3622)">
  <path d="m 1.625 3 c -0.347 0.063 -0.625 0.397 -0.625 0.75 l 0 14.5 c 0.006 0.391 0.359 0.744 0.75 0.75 l 18.5 0 c 0.391 -0.01 0.744 -0.359 0.75 -0.75 l 0 -12.438 c -0.006 -0.391 -0.359 -0.806 -0.75 -0.813 l -7.25 0 l 0 -1.25 c -0.006 -0.391 -0.359 -0.744 -0.75 -0.75 l -10.625 0 z m 12.375 3 c 0.552 0 1 0.448 1 1 c 0 0.552 -0.448 1 -1 1 c -0.552 0 -1 -0.448 -1 -1 c 0 -0.552 0.448 -1 1 -1 z m -3 1 c 0.345 0 0.675 0.027 1 0.094 c 0.049 1.061 0.927 1.906 2 1.906 c 0.291 0 0.563 -0.076 0.813 -0.188 c 0.73 0.869 1.188 1.964 1.188 3.188 c 0 1.224 -0.458 2.319 -1.188 3.188 c -0.249 -0.111 -0.521 -0.188 -0.813 -0.188 c -1.073 0 -1.951 0.845 -2 1.906 c -0.325 0.067 -0.655 0.094 -1 0.094 c -2.219 0 -4.066 -1.467 -4.719 -3.469 c 0.439 -0.367 0.719 -0.914 0.719 -1.531 c 0 -0.617 -0.28 -1.164 -0.719 -1.531 c 0.653 -2 2.499 -3.469 4.719 -3.469 z m 0 2 c -1.657 0 -3 1.343 -3 3 c 0 1.657 1.343 3 3 3 c 1.657 0 3 -1.343 3 -3 c 0 -1.657 -1.343 -3 -3 -3 z m -6 2 c 0.552 0 1 0.448 1 1 c 0 0.552 -0.448 1 -1 1 c -0.552 0 -1 -0.448 -1 -1 c 0 -0.552 0.448 -1 1 -1 z m 9 5 c 0.552 0 1 0.448 1 1 c 0 0.552 -0.448 1 -1 1 c -0.552 0 -1 -0.448 -1 -1 c 0 -0.552 0.448 -1 1 -1 z" transform="translate(0,1030.3622)" style="visibility:visible;fill:#8d6e63;fill-opacity:1;stroke:none;display:inline;color:#000;fill-rule:nonzero"/>
 </g>
</svg>
