<svg xmlns="http://www.w3.org/2000/svg" viewBox="0 0 22 22">
 <g transform="translate(0,-1030.3622)">
  <path d="m 1.625 3 c -0.347 0.063 -0.625 0.397 -0.625 0.75 l 0 14.5 c 0.006 0.391 0.359 0.744 0.75 0.75 l 18.5 0 c 0.391 -0.01 0.744 -0.359 0.75 -0.75 l 0 -12.438 c -0.006 -0.391 -0.359 -0.806 -0.75 -0.813 l -7.25 0 l 0 -1.25 c -0.006 -0.391 -0.359 -0.744 -0.75 -0.75 l -10.625 0 z m 12.375 4 c 1 0 1 0.446 1 1 l 0 3 c 2.288 2 3 2 0 2 l 0 3 c 0 1 -3 1 -3 1 l 0 -4 l -2 0 l 0 4 c 0 0 -3 0 -3 -1 l 0 -3 c -3 0 -2.203 0 0 -2 l 3 -3 c 1 -1 1 -1 2 0 l 1 1 l 0 -1 c 0 -0.554 0 -1 1 -1 z" transform="translate(0,1030.3622)" style="visibility:visible;fill:#66bb6a;fill-opacity:1;stroke:none;display:inline;color:#000;fill-rule:nonzero"/>
 </g>
</svg>
