<svg xmlns="http://www.w3.org/2000/svg" viewBox="0 0 22 22">
 <g transform="translate(0,-1030.3622)">
  <path d="m 1.625 3 c -0.347 0.063 -0.625 0.397 -0.625 0.75 l 0 14.5 c 0.006 0.391 0.359 0.744 0.75 0.75 l 18.5 0 c 0.391 -0.01 0.744 -0.359 0.75 -0.75 l 0 -12.438 c -0.006 -0.391 -0.359 -0.806 -0.75 -0.813 l -7.25 0 l 0 -1.25 c -0.006 -0.391 -0.359 -0.744 -0.75 -0.75 l -10.625 0 z m 4.375 4 l 1.5 1.5 c 0.9 -0.91 2.118 -1.5 3.5 -1.5 c 2.761 0 5 2.239 5 5 c 0 2.761 -2.239 5 -5 5 c -2.046 0 -3.788 -1.241 -4.563 -3 l 2.344 0 c 0.549 0.609 1.334 1 2.219 1 c 1.657 0 3 -1.343 3 -3 c 0 -1.657 -1.343 -3 -3 -3 c -0.829 0 -1.552 0.362 -2.094 0.906 l 1.094 1.094 l -4 0 l 0 -4 z" transform="translate(0,1030.3622)" style="visibility:visible;fill:#f57c00;fill-opacity:1;stroke:none;display:inline;color:#000;fill-rule:nonzero"/>
 </g>
</svg>
