<svg xmlns="http://www.w3.org/2000/svg" viewBox="0 0 260.02 271.96"><defs><style>.cls-1{fill:#9fef00;}</style></defs><title>start_here</title><g id="Layer_2" data-name="Layer 2"><g id="Layer_1-2" data-name="Layer 1"><path class="cls-1" d="M256.65,45.92l-4.38-1.65L131.78.31a5.28,5.28,0,0,0-3.55,0L3.4,45.9A5.19,5.19,0,0,0,0,50.77v171a5.2,5.2,0,0,0,3.42,4.87l124.82,45a5.18,5.18,0,0,0,3.53,0l124.82-45a5.19,5.19,0,0,0,3.43-4.87v-171A5.18,5.18,0,0,0,256.65,45.92Zm-136.71,59V248L19.59,211.58V68.47Zm98.69-49.69-88.2,32.24a1.24,1.24,0,0,1-.85,0L41.38,55.19a1.24,1.24,0,0,1,0-2.33l88.2-32.24a1.24,1.24,0,0,1,.85,0l88.2,32.24A1.24,1.24,0,0,1,218.63,55.19Zm21.8,13.28V211.58L140.07,248V104.88Z"/></g></g></svg>