<svg xmlns="http://www.w3.org/2000/svg" viewBox="0 0 48 48">
 <g transform="translate(0,-1004.3622)">
  <path d="m 5.188 8 c -0.676 0.144 -1.203 0.809 -1.188 1.5 l 0 28 c 0 0.785 0.715 1.5 1.5 1.5 l 37 0 c 0.785 0 1.5 -0.715 1.5 -1.5 l 0 -24.969 c 0 -0.785 -0.715 -1.5 -1.5 -1.5 l -14.5 0 l 0 -1.531 c 0 -0.785 -0.715 -1.5 -1.5 -1.5 l -21 0 c -0.104 -0.011 -0.209 -0.011 -0.313 0 z m 18.813 9.25 c 0.25 0 0.5 0.25 1 0.75 l 3 3 l 0 -2 c 0 -0.554 0 -1 1 -1 c 1 0 1 0.446 1 1 l 0 4 c 2.288 2 3 2 0 2 l 0 6 c 0 1.108 -0.892 2 -2 2 l -2 0 l 0 -6 l -4 0 l 0 6 l -2 0 c -1.108 0 -2 -0.892 -2 -2 l 0 -6 c -3 0 -2.203 0 0 -2 l 5 -5 c 0.5 -0.5 0.75 -0.75 1 -0.75 z" transform="translate(0,1004.3622)" style="visibility:visible;fill:#42a5f5;fill-opacity:1;stroke:none;display:inline;color:#000;fill-rule:nonzero"/>
 </g>
</svg>
