<svg xmlns="http://www.w3.org/2000/svg" viewBox="0 0 48 48">
 <g transform="translate(0,-1004.3622)">
  <path d="m 5.188 8 c -0.676 0.144 -1.203 0.809 -1.188 1.5 l 0 28 c 0 0.785 0.715 1.5 1.5 1.5 l 37 0 c 0.785 0 1.5 -0.715 1.5 -1.5 l 0 -24.969 c 0 -0.785 -0.715 -1.5 -1.5 -1.5 l -14.5 0 l 0 -1.531 c 0 -0.785 -0.715 -1.5 -1.5 -1.5 l -21 0 c -0.104 -0.011 -0.209 -0.011 -0.313 0 z m 11.813 9 l 1.844 1.844 c 1.39 -1.167 3.199 -1.844 5.156 -1.844 c 4.418 0 8 3.582 8 8 c 0 4.418 -3.582 8 -8 8 c -4.418 0 -8 -3.582 -8 -8 c 0 -0.689 0.086 -1.362 0.25 -2 l 2.094 0 c -0.221 0.625 -0.344 1.299 -0.344 2 c 0 3.314 2.686 6 6 6 c 3.314 0 6 -2.686 6 -6 c 0 -3.314 -2.686 -6 -6 -6 c -1.401 0 -2.696 0.478 -3.719 1.281 l 1.719 1.719 l -5 0 l 0 -5 z m 6.906 2.969 a 1 1 0 0 1 1.094 1.031 l 0 3.406 l 2.094 1.219 a 1.01 1.01 0 0 1 -1 1.75 l -2.469 -1.438 a 1 1 0 0 1 -0.125 -0.063 a 1 1 0 0 1 -0.063 -0.031 a 1 1 0 0 1 -0.031 -0.031 a 1 1 0 0 1 -0.031 -0.031 a 1 1 0 0 1 -0.063 -0.031 a 1 1 0 0 1 -0.031 -0.031 a 1 1 0 0 1 -0.031 -0.031 a 1 1 0 0 1 -0.031 -0.031 a 1 1 0 0 1 -0.031 -0.031 a 1 1 0 0 1 -0.031 -0.063 a 1 1 0 0 1 -0.031 -0.031 a 1 1 0 0 1 -0.125 -0.75 a 1 1 0 0 1 0 -0.094 l 0 -3.688 a 1 1 0 0 1 0.781 -1 a 1 1 0 0 1 0.125 -0.031 z" transform="translate(0,1004.3622)" style="visibility:visible;fill:#8d6e63;fill-opacity:1;stroke:none;display:inline;color:#000;fill-rule:nonzero"/>
 </g>
</svg>
