<svg xmlns="http://www.w3.org/2000/svg" viewBox="0 0 48 48">
 <g transform="translate(0,-1004.3622)">
  <path d="m 5.188 8 c -0.676 0.144 -1.203 0.809 -1.188 1.5 l 0 28 c 0 0.785 0.715 1.5 1.5 1.5 l 37 0 c 0.785 0 1.5 -0.715 1.5 -1.5 l 0 -24.969 c 0 -0.785 -0.715 -1.5 -1.5 -1.5 l -14.5 0 l 0 -1.531 c 0 -0.785 -0.715 -1.5 -1.5 -1.5 l -21 0 c -0.104 -0.011 -0.209 -0.011 -0.313 0 z m 10.813 9 c 7.375 0.304 16 6.396 16 16 l -3 0 c 0.027 -6.723 -6.236 -12.253 -13 -13 l 0 -3 z m 0 5 c 4.553 0.463 10.841 4.478 11 11 l -3 0 c -0.041 -4.277 -4.334 -7.699 -8 -8 l 0 -3 z m 2.563 6 c 1.381 0.042 2.478 1.183 2.438 2.563 c -0.039 1.38 -1.182 2.477 -2.563 2.438 c -1.381 -0.042 -2.478 -1.183 -2.438 -2.563 c 0.039 -1.38 1.182 -2.477 2.563 -2.438 z" transform="translate(0,1004.3622)" style="visibility:visible;fill:#b9ff66;fill-opacity:1;stroke:none;display:inline;color:#000;fill-rule:nonzero"/>
 </g>
</svg>
