<svg xmlns="http://www.w3.org/2000/svg" viewBox="0 0 48 48">
 <g transform="translate(0,-1004.3622)">
  <path d="m 5.188 8 c -0.676 0.144 -1.203 0.809 -1.188 1.5 l 0 28 c 0 0.785 0.715 1.5 1.5 1.5 l 37 0 c 0.785 0 1.5 -0.715 1.5 -1.5 l 0 -24.969 c 0 -0.785 -0.715 -1.5 -1.5 -1.5 l -14.5 0 l 0 -1.531 c 0 -0.785 -0.715 -1.5 -1.5 -1.5 l -21 0 c -0.104 -0.011 -0.209 -0.011 -0.313 0 z m 20.938 10.656 c 1.592 0 2.906 1.208 2.906 2.719 c -0.018 0.529 -0.033 1.118 -0.375 2.563 c -0.063 0.189 -0.184 0.381 -0.344 0.594 c -0.143 0.191 -0.332 0.395 -0.5 0.594 c -0.037 0.362 -0.035 0.731 0 1.094 c 0.465 0.38 1.316 0.742 2.094 1.063 c 0.4 0.165 0.772 0.318 1.063 0.5 c 0.145 0.091 0.276 0.166 0.375 0.281 c 0.093 0.108 0.147 0.256 0.156 0.406 c 0.001 0.01 0 0.021 0 0.031 l 0.375 2.656 l 0 0.031 c 0 0.329 -0.219 0.599 -0.531 0.813 c -0.312 0.214 -0.735 0.382 -1.25 0.531 c -1.029 0.299 -2.426 0.469 -3.969 0.469 c -1.543 0 -2.939 -0.17 -3.969 -0.469 c -0.515 -0.149 -0.938 -0.317 -1.25 -0.531 c -0.312 -0.214 -0.531 -0.483 -0.531 -0.813 l 0 -0.031 l 0.344 -2.656 c 0 -0.015 0.03 -0.016 0.031 -0.031 c 0.02 -0.315 0.221 -0.566 0.5 -0.75 c 0.292 -0.193 0.662 -0.341 1.063 -0.5 c 0.768 -0.306 1.621 -0.641 2.094 -1 c 0.061 -0.421 0.053 -0.764 0 -1.156 c -0.172 -0.186 -0.359 -0.387 -0.5 -0.563 c -0.157 -0.197 -0.251 -0.379 -0.313 -0.563 l -0.031 0 c -0.303 -1.387 -0.332 -2.044 -0.344 -2.563 c 0 -1.511 1.314 -2.719 2.906 -2.719 z m -5.406 0.5 c 0.593 0 1.145 0.229 1.563 0.563 l 0.125 0.063 l -0.063 0.125 c -0.076 0.231 -0.125 0.477 -0.125 0.688 c 0.011 0.502 0.044 1.067 0.344 2.438 c 0.044 0.133 0.035 0.251 0.063 0.406 l 0.031 0.063 l -0.031 0.063 c -0.08 0.19 -0.262 0.523 -0.5 0.844 c -0.001 0.01 0.001 0.021 0 0.031 c -0.032 0.308 -0.03 0.629 0 0.938 c 0.156 0.122 0.346 0.255 0.594 0.375 l 0.344 0.156 l -0.344 0.188 c -0.628 0.326 -1.412 0.575 -2.031 0.844 c -0.31 0.134 -0.575 0.27 -0.75 0.406 c -0.175 0.136 -0.25 0.266 -0.25 0.375 l -0.344 2.656 c 0 0.01 0 0.021 0 0.031 c -0.003 0.07 -0.008 0.151 -0.031 0.219 c -0.013 0.039 -0.032 0.082 -0.063 0.125 c -0.015 0.021 -0.058 0.04 -0.094 0.063 c -0.029 0.018 -0.077 0.031 -0.125 0.031 l -0.031 0 c -0.883 -0.091 -1.613 -0.246 -2.125 -0.469 c -0.26 -0.113 -0.472 -0.253 -0.625 -0.406 c -0.153 -0.153 -0.25 -0.328 -0.25 -0.531 l 0 -0.031 l 0.313 -2.156 c 0 -0.015 0.03 -0.016 0.031 -0.031 c 0.019 -0.255 0.18 -0.476 0.406 -0.625 c 0.239 -0.158 0.516 -0.277 0.844 -0.406 c 0.633 -0.25 1.332 -0.516 1.719 -0.813 c 0.047 -0.337 0.042 -0.655 0 -0.969 c -0.139 -0.15 -0.292 -0.326 -0.406 -0.469 c -0.131 -0.163 -0.231 -0.285 -0.281 -0.438 l 0 -0.031 c -0.249 -1.138 -0.272 -1.638 -0.281 -2.063 c 0 -1.24 1.067 -2.25 2.375 -2.25 z" transform="translate(0,1004.3622)" style="visibility:visible;fill:#c4905e;fill-opacity:1;stroke:none;display:inline;color:#000;fill-rule:nonzero"/>
 </g>
</svg>
