<svg xmlns="http://www.w3.org/2000/svg" viewBox="0 0 48 48">
 <g transform="translate(0,-1004.3622)">
  <path d="m 5.188 8 c -0.676 0.144 -1.203 0.809 -1.188 1.5 l 0 28 c 0 0.785 0.715 1.5 1.5 1.5 l 37 0 c 0.785 0 1.5 -0.715 1.5 -1.5 l 0 -24.969 c 0 -0.785 -0.715 -1.5 -1.5 -1.5 l -14.5 0 l 0 -1.531 c 0 -0.785 -0.715 -1.5 -1.5 -1.5 l -21 0 c -0.104 -0.011 -0.209 -0.011 -0.313 0 z m 11.813 9 l 0.094 0 l 1.906 0 l 0 2 l -1 0 l 0 1 l -2 0 l 0 -2 c 0 -0.962 1 -1 1 -1 z m 3 0 l 2 0 l 0 2 l -2 0 l 0 -2 z m 3 0 l 2 0 l 0 2 l -2 0 l 0 -2 z m 3 0 l 2 0 l 0 2 l -2 0 l 0 -2 z m 3 0 l 2 0 c 0 0 1 0 1 1 l 0 2 l -2 0 l 0 -1 l -1 0 l 0 -2 z m -13 4 l 2 0 l 0 2 l -2 0 l 0 -2 z m 14 0 l 2 0 l 0 2 l -2 0 l 0 -2 z m -14 3 l 2 0 l 0 2 l -2 0 l 0 -2 z m 14 0 l 2 0 l 0 2 l -2 0 l 0 -2 z m -14 3 l 2 0 l 0 2 l -2 0 l 0 -2 z m 14 0 l 2 0 l 0 2 l -2 0 l 0 -2 z m -14 3 l 2 0 l 0 1 l 1 0 l 0 2 l -2 0 c 0 0 -1 0 -1 -1 l 0 -2 z m 14 0 l 2 0 l 0 2 c 0 1 -1 1 -1 1 l -2 0 l 0 -2 l 1 0 l 0 -1 z m -10 1 l 2 0 l 0 2 l -2 0 l 0 -2 z m 3 0 l 2 0 l 0 2 l -2 0 l 0 -2 z m 3 0 l 2 0 l 0 2 l -2 0 l 0 -2 z" transform="translate(0,1004.3622)" style="visibility:visible;fill:#66bb6a;fill-opacity:1;stroke:none;display:inline;color:#000;fill-rule:nonzero"/>
 </g>
</svg>
