<svg xmlns="http://www.w3.org/2000/svg" viewBox="0 0 48 48">
 <g transform="translate(0,-1004.3622)">
  <path d="m 5.188 8 c -0.676 0.144 -1.203 0.809 -1.188 1.5 l 0 28 c 0 0.785 0.715 1.5 1.5 1.5 l 37 0 c 0.785 0 1.5 -0.715 1.5 -1.5 l 0 -24.969 c 0 -0.785 -0.715 -1.5 -1.5 -1.5 l -14.5 0 l 0 -1.531 c 0 -0.785 -0.715 -1.5 -1.5 -1.5 l -21 0 c -0.104 -0.011 -0.209 -0.011 -0.313 0 z m 23.781 8.625 c 0.313 -0.022 0.614 0.053 0.906 0.219 c 0.779 0.443 1.043 1.42 0.594 2.188 c -0.449 0.768 -1.44 1.037 -2.219 0.594 c -0.779 -0.443 -1.043 -1.42 -0.594 -2.188 c 0.281 -0.48 0.791 -0.776 1.313 -0.813 z m -4.063 1.719 c 0.655 0 1.305 0.086 1.906 0.25 c 0.106 0.645 0.506 1.242 1.125 1.594 c 0.618 0.352 1.318 0.387 1.938 0.156 c 1.204 1.167 1.98 2.763 2.094 4.531 l -2.313 0.031 c -0.214 -2.395 -2.265 -4.281 -4.75 -4.281 c -0.716 0 -1.391 0.158 -2 0.438 l -1.125 -2 c 0.945 -0.462 1.999 -0.719 3.125 -0.719 z m -3.906 1.156 l 1.188 1.969 c -1.223 0.849 -2.031 2.257 -2.031 3.844 c 0 1.587 0.808 2.995 2.031 3.844 l -1.188 1.969 c -1.425 -0.939 -2.497 -2.382 -2.938 -4.063 c 0.514 -0.413 0.844 -1.045 0.844 -1.75 c 0 -0.706 -0.329 -1.337 -0.844 -1.75 c 0.44 -1.681 1.513 -3.124 2.938 -4.063 z m -4.375 4.219 c 0.899 0 1.625 0.707 1.625 1.594 c 0 0.887 -0.726 1.594 -1.625 1.594 c -0.899 0 -1.625 -0.707 -1.625 -1.594 c 0 -0.887 0.726 -1.594 1.625 -1.594 z m 13.03 2 l 2.313 0.031 c -0.114 1.768 -0.89 3.364 -2.094 4.531 c -0.619 -0.231 -1.319 -0.195 -1.938 0.156 c -0.619 0.352 -1.019 0.949 -1.125 1.594 c -0.602 0.164 -1.252 0.25 -1.906 0.25 c -1.126 0 -2.18 -0.257 -3.125 -0.719 l 1.125 -2 c 0.609 0.279 1.284 0.438 2 0.438 c 2.485 0 4.537 -1.886 4.75 -4.281 z m -0.469 5.063 c 0.521 0.036 1 0.333 1.281 0.813 c 0.45 0.768 0.185 1.744 -0.594 2.188 c -0.779 0.443 -1.769 0.174 -2.219 -0.594 c -0.449 -0.767 -0.185 -1.744 0.594 -2.188 c 0.292 -0.166 0.625 -0.241 0.938 -0.219 z" transform="translate(0,1004.3622)" style="visibility:visible;fill:#66bb6a;fill-opacity:1;stroke:none;display:inline;color:#000;fill-rule:nonzero"/>
 </g>
</svg>
