<svg xmlns="http://www.w3.org/2000/svg" viewBox="0 0 48 48">
 <g transform="translate(0,-1004.3622)">
  <path d="m 5.188 8 c -0.676 0.144 -1.203 0.809 -1.188 1.5 l 0 28 c 0 0.785 0.715 1.5 1.5 1.5 l 37 0 c 0.785 0 1.5 -0.715 1.5 -1.5 l 0 -24.969 c 0 -0.785 -0.715 -1.5 -1.5 -1.5 l -14.5 0 l 0 -1.531 c 0 -0.785 -0.715 -1.5 -1.5 -1.5 l -21 0 c -0.104 -0.011 -0.209 -0.011 -0.313 0 z m 17.563 9 l 2.531 0 c 0.444 0 0.781 0.337 0.781 0.781 l 0 1.063 c 0.286 0.096 0.577 0.179 0.844 0.313 l 0.719 -0.719 c 0.314 -0.314 0.811 -0.314 1.125 0 l 1.813 1.813 c 0.314 0.314 0.314 0.811 0 1.125 l -0.719 0.75 c 0.13 0.262 0.218 0.532 0.313 0.813 l 1.063 0 c 0.444 0 0.781 0.338 0.781 0.781 l 0 2.563 c 0 0.444 -0.338 0.781 -0.781 0.781 l -1.063 0 c -0.094 0.281 -0.183 0.55 -0.313 0.813 l 0.719 0.75 c 0.314 0.314 0.314 0.811 0 1.125 l -1.813 1.813 c -0.314 0.314 -0.811 0.314 -1.125 0 l -0.719 -0.719 c -0.267 0.133 -0.558 0.216 -0.844 0.313 l 0 1.063 c 0 0.444 -0.338 0.781 -0.781 0.781 l -2.531 0 c -0.444 0 -0.813 -0.337 -0.813 -0.781 l 0 -1.063 c -0.281 -0.094 -0.55 -0.183 -0.813 -0.313 l -0.75 0.719 c -0.314 0.314 -0.811 0.314 -1.125 0 l -1.813 -1.813 c -0.314 -0.314 -0.314 -0.811 0 -1.125 l 0.719 -0.719 c -0.133 -0.267 -0.217 -0.558 -0.313 -0.844 l -1.031 0 c -0.444 0 -0.813 -0.338 -0.813 -0.781 l 0 -2.563 c 0 -0.444 0.369 -0.781 0.813 -0.781 l 1.031 0 c 0.096 -0.286 0.18 -0.577 0.313 -0.844 l -0.719 -0.719 c -0.314 -0.314 -0.314 -0.811 0 -1.125 l 1.813 -1.813 c 0.314 -0.314 0.811 -0.314 1.125 0 l 0.75 0.719 c 0.262 -0.13 0.532 -0.218 0.813 -0.313 l 0 -1.063 c 0 -0.444 0.369 -0.781 0.813 -0.781 z m 1.25 5.938 c -1.145 0 -2.063 0.918 -2.063 2.063 c 0 1.145 0.918 2.063 2.063 2.063 c 1.145 0 2.063 -0.918 2.063 -2.063 c 0 -1.145 -0.918 -2.063 -2.063 -2.063 z" transform="translate(0,1004.3622)" style="visibility:visible;fill:#f57c00;fill-opacity:1;stroke:none;display:inline;color:#000;fill-rule:nonzero"/>
 </g>
</svg>
