<svg xmlns="http://www.w3.org/2000/svg" viewBox="0 0 48 48">
 <path d="m 5.188 8 c -0.676 0.144 -1.203 0.809 -1.188 1.5 l 0 28 c 0 0.785 0.715 1.5 1.5 1.5 l 37 0 c 0.785 0 1.5 -0.715 1.5 -1.5 l 0 -24.969 c 0 -0.785 -0.715 -1.5 -1.5 -1.5 l -14.5 0 l 0 -1.531 c 0 -0.785 -0.715 -1.5 -1.5 -1.5 l -21 0 c -0.104 -0.011 -0.209 -0.011 -0.313 0 z m 11.813 9 c 3 0 5 0.999 7 2.666 c 2 -1.667 4 -2.666 7 -2.666 l -6 4 l -2 0 l -6 -4 z m -1 1 l 6 4 l 0 10 l -6 -4 l 0 -10 z m 16 0 l 0 10 l -6 4 l 0 -10 l 6 -4 z m -9 4.5 l 2 0 l 0 10.5 l -2 0 l 0 -10.5 z" style="visibility:visible;fill:#7e57c2;fill-opacity:1;stroke:none;display:inline;color:#000;fill-rule:nonzero"/>
</svg>
