<svg xmlns="http://www.w3.org/2000/svg" viewBox="0 0 48 48">
 <g transform="translate(0,-1004.3622)">
  <path d="m 5.188 8 c -0.676 0.144 -1.203 0.809 -1.188 1.5 l 0 28 c 0 0.785 0.715 1.5 1.5 1.5 l 37 0 c 0.785 0 1.5 -0.715 1.5 -1.5 l 0 -24.969 c 0 -0.785 -0.715 -1.5 -1.5 -1.5 l -14.5 0 l 0 -1.531 c 0 -0.785 -0.715 -1.5 -1.5 -1.5 l -21 0 c -0.104 -0.011 -0.209 -0.011 -0.313 0 z m 16.531 11 a 4 4 0 0 1 0.281 0 a 4 4 0 0 1 3.625 2.313 a 3 3 0 0 1 1.375 -0.313 a 3 3 0 0 1 3 3 a 3 3 0 0 1 -0.219 1.094 a 3 3 0 0 1 2.219 2.906 a 3 3 0 0 1 -3 3 a 3 3 0 0 1 -0.281 0 l -9.719 0 a 3 3.5 0 0 1 -3 -3.5 a 3 3.5 0 0 1 2.188 -3.375 a 4 4 0 0 1 -0.188 -1.125 a 4 4 0 0 1 3.719 -4 z" transform="translate(0,1004.3622)" style="visibility:visible;fill:#7e57c2;fill-opacity:1;stroke:none;display:inline;color:#000;fill-rule:nonzero"/>
 </g>
</svg>
