<svg xmlns="http://www.w3.org/2000/svg" viewBox="0 0 64 64">
 <g transform="translate(0,-988.3622)">
  <path d="m 6.06 10 c -1.129 0.111 -2.081 1.178 -2.063 2.313 l 0 39.38 c -0.014 1.215 1.098 2.326 2.313 2.313 l 51.38 0 c 1.215 0.014 2.326 -1.098 2.313 -2.313 l 0 -35.37 c 0.014 -1.215 -1.098 -2.326 -2.313 -2.313 l -19.688 0 l 0 -1.688 c 0.014 -1.194 -1.056 -2.294 -2.25 -2.313 l -29.438 0 c -0.083 0 -0.167 0 -0.25 0 z m 36.938 10 c 1.657 0 3 1.343 3 3 c 0 1.657 -1.343 3 -3 3 c -1.657 0 -3 -1.343 -3 -3 c 0 -1.657 1.343 -3 3 -3 z m -11 2 c 2.303 0 4.454 0.657 6.281 1.781 c -0.169 0.376 -0.281 0.78 -0.281 1.219 c 0 1.657 1.343 3 3 3 c 0.439 0 0.843 -0.112 1.219 -0.281 c 0.958 1.556 1.556 3.362 1.719 5.281 l -4 0 c -0.494 -3.944 -3.859 -7 -7.938 -7 c -1.17 0 -2.28 0.267 -3.281 0.719 l -2.969 -2.969 c 1.82 -1.117 3.958 -1.75 6.25 -1.75 z m -7.844 2.969 l 2.813 2.813 c -1.809 1.467 -2.969 3.708 -2.969 6.219 c 0 2.721 1.362 5.117 3.438 6.563 l -2.875 2.875 c -2.108 -1.667 -3.627 -4.04 -4.25 -6.75 c 0.995 -0.488 1.688 -1.504 1.688 -2.688 c 0 -1.183 -0.692 -2.199 -1.688 -2.688 c 0.578 -2.512 1.965 -4.706 3.844 -6.344 z m -8.156 6.03 c 1.657 0 3 1.343 3 3 c 0 1.657 -1.343 3 -3 3 c -1.657 0 -3 -1.343 -3 -3 c 0 -1.657 1.343 -3 3 -3 z m 23.938 4 l 4 0 c -0.216 2.612 -1.255 4.973 -2.875 6.844 c -0.539 -0.515 -1.258 -0.844 -2.063 -0.844 c -1.657 0 -3 1.343 -3 3 c 0 0.439 0.112 0.843 0.281 1.219 c -1.333 0.511 -2.769 0.781 -4.281 0.781 c -2.076 0 -4.02 -0.539 -5.719 -1.469 l 3.03 -3.03 c 0.842 0.301 1.742 0.5 2.688 0.5 c 4.078 0 7.444 -3.056 7.938 -7 z m 1.063 8 c 1.657 0 3 1.343 3 3 c 0 1.657 -1.343 3 -3 3 c -1.657 0 -3 -1.343 -3 -3 c 0 -1.657 1.343 -3 3 -3 z" transform="translate(0,988.3622)" style="visibility:visible;fill:#42a5f5;fill-opacity:1;stroke:none;display:inline;color:#000;fill-rule:nonzero"/>
 </g>
</svg>
