<svg xmlns="http://www.w3.org/2000/svg" viewBox="0 0 64 64">
 <g transform="translate(0,-988.3622)">
  <path d="m 6.06 10 c -1.129 0.111 -2.081 1.178 -2.063 2.313 l 0 39.38 c -0.014 1.215 1.098 2.326 2.313 2.313 l 51.38 0 c 1.215 0.014 2.326 -1.098 2.313 -2.313 l 0 -35.37 c 0.014 -1.215 -1.098 -2.326 -2.313 -2.313 l -19.688 0 l 0 -1.688 c 0.014 -1.194 -1.056 -2.294 -2.25 -2.313 l -29.438 0 c -0.083 0 -0.167 0 -0.25 0 z m 19.938 12 l 12 0 c 1 0 2 1 2 2 l -16 0 c 0 -1 1 -2 2 -2 z m -2 3 l 16 0 l 0 18 l -16 0 l 0 -18 z m 3 2 l 0 2 l 10 0 l 0 -2 l -10 0 z m 0 4 l 0 2 l 10 0 l 0 -2 l -10 0 z m 5 4 c -1.105 0 -2 0.895 -2 2 c 0 1.105 0.895 2 2 2 c 1.105 0 2 -0.895 2 -2 c 0 -1.105 -0.895 -2 -2 -2 z m -8 9 l 16 0 c 0 1 -1 2 -2 2 l -12 0 c -1 0 -2 -1 -2 -2 z" transform="translate(0,988.3622)" style="visibility:visible;fill:#42a5f5;fill-opacity:1;stroke:none;display:inline;color:#000;fill-rule:nonzero"/>
 </g>
</svg>
