<svg xmlns="http://www.w3.org/2000/svg" viewBox="0 0 64 64">
 <g transform="translate(0,-988.3622)">
  <path d="m 6.06 10 c -1.129 0.111 -2.081 1.178 -2.063 2.313 l 0 39.38 c -0.014 1.215 1.098 2.326 2.313 2.313 l 51.38 0 c 1.215 0.014 2.326 -1.098 2.313 -2.313 l 0 -35.37 c 0.014 -1.215 -1.098 -2.326 -2.313 -2.313 l -19.688 0 l 0 -1.688 c 0.014 -1.194 -1.056 -2.294 -2.25 -2.313 l -29.438 0 c -0.083 0 -0.167 0 -0.25 0 z m 16.25 13.906 c 0.771 -0.012 1.551 0.086 2.313 0.156 c 3.708 0.42 7.392 1.864 10.125 4.469 c 0.846 -0.16 1.704 -0.362 2.563 -0.5 c 1.265 -0.167 2.554 0.394 3.375 1.375 c 1.016 1.259 2.032 2.482 3.03 3.75 c 0.51 0.663 0.157 1.742 -0.656 1.906 c -1.374 0.249 -2.785 0.443 -4.156 0.688 c 0.083 1.124 -0.169 2.284 -0.844 3.188 c -0.757 1.06 -2.031 1.686 -3.313 1.844 c -0.038 0.969 0.057 1.956 0.063 2.938 c -0.007 0.466 0.093 0.949 -0.031 1.406 c -0.204 0.695 -1.102 1.094 -1.75 0.75 c -1.409 -0.727 -2.82 -1.419 -4.219 -2.156 c -1.179 -0.63 -1.969 -1.883 -2 -3.219 c -0.001 -0.764 -0.015 -1.582 0 -2.344 c 0.039 -0.183 -0.112 -0.211 -0.219 -0.313 c -2.906 -2.19 -4.901 -5.435 -5.969 -8.875 c -0.42 -1.5 -0.793 -3.123 -0.563 -4.688 c 0.734 -0.255 1.479 -0.32 2.25 -0.344 l 0 -0.031 z m 4.625 2.875 c -0.896 0.082 -1.786 0.504 -2.406 1.25 c -1.241 1.492 -0.991 3.727 0.5 4.969 c 1.491 1.242 3.696 0.992 4.938 -0.5 c 1.241 -1.492 0.991 -3.695 -0.5 -4.938 c -0.745 -0.621 -1.636 -0.861 -2.531 -0.781 z m 0.406 1.563 c 1.105 0 2 0.895 2 2 c 0 1.105 -0.895 2 -2 2 c -1.105 0 -2 -0.895 -2 -2 c 0 -1.105 0.895 -2 2 -2 z m 13.906 9.156 c 0.102 0.01 0.225 0.055 0.313 0.125 c 0.748 0.617 1.511 1.222 2.25 1.844 c 0.371 0.297 0.175 0.972 -0.281 1.063 c -0.368 0.058 -0.724 0.081 -1.094 0.125 c 0.367 0.854 0.736 1.673 1.094 2.531 c 0.174 0.407 -0.23 0.932 -0.656 0.844 c -0.905 -0.2 -1.804 -0.46 -2.719 -0.656 c 0.034 0.368 0.082 0.783 0.094 1.156 c -0.006 0.456 -0.485 0.774 -0.844 0.469 c -0.737 -0.608 -1.578 -1.325 -2.313 -1.938 c -0.358 -0.286 -0.248 -0.862 0.188 -1 c 1.673 -0.709 2.922 -2.253 3.313 -4.03 c 0.044 -0.321 0.35 -0.559 0.656 -0.531 z" transform="translate(0,988.3622)" style="visibility:visible;fill:#8d6e63;fill-opacity:1;stroke:none;display:inline;color:#000;fill-rule:nonzero"/>
 </g>
</svg>
