<svg xmlns="http://www.w3.org/2000/svg" viewBox="0 0 64 64">
 <g transform="translate(0,-988.3622)">
  <path d="m 6.06 10 c -1.129 0.111 -2.081 1.178 -2.063 2.313 l 0 39.38 c -0.014 1.215 1.098 2.326 2.313 2.313 l 51.38 0 c 1.215 0.014 2.326 -1.098 2.313 -2.313 l 0 -35.37 c 0.014 -1.215 -1.098 -2.326 -2.313 -2.313 l -19.688 0 l 0 -1.688 c 0.014 -1.194 -1.056 -2.294 -2.25 -2.313 l -29.438 0 c -0.083 0 -0.167 0 -0.25 0 z m 25.938 11 c 1.108 0 2 0.892 2 2 l 0 10 l 4 0 c 2 0 2 0 0 2 l -4 4 c -2 2 -2 2 -4 0 l -4 -4 c -2 -2 -2 -2 0 -2 l 4 0 l 0 -10 c 0 -1.108 0.892 -2 2 -2 z m -12.06 14 l 0.125 0 c 1.069 0 1.938 0.892 1.938 2 l 0 6 l 20 0 l 0 -6 c 0 -1.108 0.869 -2 1.938 -2 l 0.125 0 c 1.069 0 1.938 0.892 1.938 2 l 0 7.906 l 0 0.188 c -0.005 0.105 -0.012 0.212 -0.031 0.313 c -0.004 0.021 0.004 0.042 0 0.063 c -0.025 0.11 -0.084 0.211 -0.125 0.313 c -0.051 0.125 -0.112 0.234 -0.188 0.344 c -0.005 0.008 0.005 0.024 0 0.031 c -0.057 0.085 -0.119 0.144 -0.188 0.219 c -0.01 0.011 -0.021 0.021 -0.031 0.031 c -0.005 0.006 -0.026 -0.006 -0.031 0 c -0.006 0.005 0.006 0.026 0 0.031 c -0.079 0.078 -0.159 0.155 -0.25 0.219 c -0.012 0.008 -0.019 0.023 -0.031 0.031 c -0.044 0.03 -0.109 0.037 -0.156 0.063 c -0.288 0.152 -0.615 0.25 -0.969 0.25 l -0.063 0 l -23.875 0 l -0.063 0 c -0.021 0 -0.041 0.001 -0.063 0 c -0.113 0 -0.236 -0.012 -0.344 -0.031 c -0.02 -0.004 -0.043 0.004 -0.063 0 c -0.116 -0.024 -0.205 -0.08 -0.313 -0.125 c -0.009 -0.004 -0.022 0.004 -0.031 0 c -0.054 -0.023 -0.105 -0.066 -0.156 -0.094 c -0.063 -0.034 -0.129 -0.054 -0.188 -0.094 c -0.091 -0.063 -0.171 -0.141 -0.25 -0.219 c -0.011 -0.01 -0.021 -0.021 -0.031 -0.031 c -0.011 -0.011 -0.021 -0.02 -0.031 -0.031 c -0.072 -0.075 -0.129 -0.164 -0.188 -0.25 c -0.076 -0.11 -0.137 -0.219 -0.188 -0.344 c -0.041 -0.102 -0.1 -0.203 -0.125 -0.313 c -0.004 -0.021 0.004 -0.042 0 -0.063 c -0.02 -0.101 -0.027 -0.207 -0.031 -0.313 l 0 -0.094 l 0 -0.094 l 0 -7.906 c 0 -1.108 0.869 -2 1.938 -2 z" transform="translate(0,988.3622)" style="visibility:visible;fill:#8d6e63;fill-opacity:1;stroke:none;display:inline;color:#000;fill-rule:nonzero"/>
 </g>
</svg>
