<svg xmlns="http://www.w3.org/2000/svg" viewBox="0 0 64 64">
 <g transform="translate(0,-988.3622)">
  <path d="m 6.06 10 c -1.129 0.111 -2.081 1.178 -2.063 2.313 l 0 39.38 c -0.014 1.215 1.098 2.326 2.313 2.313 l 51.38 0 c 1.215 0.014 2.326 -1.098 2.313 -2.313 l 0 -35.37 c 0.014 -1.215 -1.098 -2.326 -2.313 -2.313 l -19.688 0 l 0 -1.688 c 0.014 -1.194 -1.056 -2.294 -2.25 -2.313 l -29.438 0 c -0.083 0 -0.167 0 -0.25 0 z m 24.438 12 l 1.5 0 c 6.618 0 12 5.382 12 12 c 0 6.618 -5.382 12 -13.5 12 c -5.118 0 -10.5 -5.382 -10.5 -12 c 0 -6.618 5.382 -12 10.5 -12 z m 2.469 1.688 c -0.007 0.052 0.006 0.066 0 0.125 c -0.107 1.018 -0.629 0.329 -0.844 0.438 c -0.214 0.107 -1.656 2.089 -1.656 1.875 c 0 -0.214 0.25 -0.531 0.25 -0.531 c 0 0 0.108 -0.905 -0.063 -1.875 c -0.466 0.061 -0.962 0.161 -1.406 0.281 l -1.375 2.281 c 0.12 0.018 0.252 0.068 0.406 0.156 c 0.75 0.429 1.067 0.791 1.281 0.844 c 0.214 0.054 1.196 -1.29 0.5 0.156 c -0.696 1.447 -1.04 1.928 -1.844 2.25 c -0.05 0.015 -0.107 0.007 -0.156 0.031 c -0.205 0.246 -0.465 0.535 -0.813 0.844 c -0.758 0.676 -1.125 0.731 -1.125 1.406 c 0 0.675 -0.001 1.194 -0.531 2.094 c -0.53 0.9 -0.915 0.918 -0.688 1.594 c 0.227 0.675 0.379 1.869 0 1.344 c -0.379 -0.525 -0.228 -1.568 -0.531 -0.969 c -0.265 0.525 -0.89 0.742 -0.938 1.281 c -0.007 0.074 -0.019 0.124 0 0.219 c 0.004 0.015 0.057 0.007 0.063 0.031 c 0.194 0.649 1.25 -0.262 1.25 0.25 c 0 0.525 -0.915 0.55 -0.688 1 c 0.227 0.45 1.055 -0.912 1.813 -0.688 c 0.758 0.225 0.318 0.387 1 0.688 c 0.682 0.3 1.031 0.581 1.031 1.031 c 0 0.45 2.134 0.218 1.906 0.969 c -0.227 0.75 -0.443 0.613 -1.125 1.438 c -0.376 0.455 -0.655 0.718 -0.875 0.938 c 0.309 0.226 0.326 0.339 0.688 0.219 c 0.482 -0.16 -0.094 -0.38 0.281 -0.594 c 0.094 -0.054 0.132 -0.109 0.188 -0.156 c 0.055 -0.044 0.105 -0.06 0.219 -0.094 c 0.228 -0.067 0.674 -0.125 1.719 -0.125 c 2.089 0 3.125 0.125 3.125 0.125 c 0 0 0.674 -0.063 0.031 0.313 c -0.47 0.274 -1.411 0.776 -1.531 0.906 c 0.047 -0.005 0.129 0.003 0.25 -0.031 c 0.964 -0.268 2.281 -0.486 2.656 -0.594 c 0.159 -0.045 1 -0.469 1.688 -0.781 c 0.028 -0.065 0.066 -0.123 0.094 -0.188 l -0.031 0 c -0.53 -0.227 -0.995 -1.291 -0.844 -1.594 c 0.152 -0.303 0.527 -0.555 0.906 -1.313 c 0.379 -0.758 0.311 -0.199 -0.75 -1.563 c -1.061 -1.364 -1.595 0.079 -2.125 -0.375 c -0.53 -0.455 -1.67 -0.854 -2.125 -1.688 c -0.455 -0.834 -0.219 -0.216 -0.219 -1.125 c 0 -0.911 -0.071 -0.21 0.156 -0.969 c 0.227 -0.757 0.805 -0.876 1.563 -1.406 c 0.104 -0.075 0.238 -0.103 0.344 -0.156 c -0.17 -0.161 -0.371 -0.496 -0.844 -0.969 c 0 0 0.434 -0.973 0.813 -1.125 c 0.368 -0.145 0.596 -0.049 1.094 0.094 c 0.021 -0.081 0.008 -0.127 0.031 -0.313 c 0.076 -0.607 -0.219 -0.246 -0.219 -0.625 c 0 -0.379 0.188 -0.004 0.719 -0.156 c 0.53 -0.151 0.501 -1.214 1.031 -1.063 c 0.53 0.152 0.514 -0.224 0.969 -0.906 c 0.455 -0.683 0.012 -0.291 -0.594 -0.594 c -0.606 -0.303 -0.067 0.439 -0.219 0.969 c -0.152 0.53 -0.595 0.261 -1.125 -0.875 c -0.53 -1.136 -0.084 -0.716 0.219 -1.625 c 0.053 -0.16 0.112 -0.249 0.188 -0.344 c -0.985 -0.429 -2.069 -0.678 -3.188 -0.781 z m 1.906 4.03 c 0.044 -0.008 0.087 0.019 0.125 0.031 c 0.231 0.035 0.418 0.243 0.531 0.469 c 0.061 0.124 -0.023 0.159 -0.094 0.188 c 0 0 0.125 0.269 0.125 0.344 c 0 0.075 -0.171 0.064 -0.531 -0.031 c -0.27 -0.07 -0.058 -0.146 0.125 -0.281 l -0.344 0 c -0.133 0 -0.187 -0.007 -0.219 -0.031 c 0.02 0.016 -0.002 -0.008 0.031 0.031 c 0.17 0.209 -0.004 0.07 -0.25 0.125 c -0.246 0.057 -0.02 -0.134 0.094 -0.344 c 0 0 0.097 0.077 0.125 0.125 c 0.047 -0.104 0.156 -0.297 0.156 -0.563 c 0.047 -0.02 0.081 -0.055 0.125 -0.063 z m 5.875 0.656 c -0.379 0.281 -0.883 0.914 -1.281 1.313 c -0.682 0.681 0.371 0.735 0.75 0.813 c 0.379 0.076 0.742 -0.125 1.5 -0.125 c -0.013 -0.035 -0.017 -0.089 -0.031 -0.125 c -0.103 0.012 -0.22 0.031 -0.344 0.031 c -0.444 0 -0.198 -0.395 -0.094 -1 c -0.158 -0.31 -0.313 -0.615 -0.5 -0.906 z m -4.875 1.375 c -0.145 0.039 -0.315 0.188 -0.531 0.313 c 0.205 0.299 -0.419 1.122 -0.75 1.719 c -0.013 0.015 -0.019 0.007 -0.031 0.031 c 0.65 -0.109 1.609 0.09 3.875 0.656 c 0 0 0.88 -0.24 1.031 0.063 c 0.054 0.106 0.31 0.163 0.656 0.188 c 0.916 -0.361 0.469 -0.645 0.469 -1.375 c 0 -0.758 -1.12 0.066 -0.969 -0.313 c 0.152 -0.379 -0.188 -0.376 -0.719 -0.906 c -0.53 -0.53 -0.465 1.378 -0.844 1 c -0.379 -0.375 -0.348 -0.072 -0.5 -0.375 c -0.152 -0.303 -0.688 -0.844 -0.688 -0.844 c 0 0 0.388 0.461 0.313 1.219 c -0.076 0.757 -1.125 0.063 -1.125 0.063 c 0 0 0.134 -0.081 0.438 -0.156 c 0.303 -0.076 -0.085 -0.501 -0.313 -1.031 c -0.057 -0.129 -0.118 -0.227 -0.188 -0.25 c -0.04 -0.012 -0.077 -0.013 -0.125 0 z m 6.5 3.813 c -0.084 0.061 -0.177 0.086 -0.281 0.125 c -0.833 0.303 -1.438 1 -1.438 1 c 0 0 0.975 -0.013 1.656 0.594 c 0.049 -0.413 0.063 -0.855 0.063 -1.281 c 0 -0.154 0.007 -0.286 0 -0.438 z" transform="translate(0,988.3622)" style="visibility:visible;fill:#c4905e;fill-opacity:1;stroke:none;display:inline;color:#000;fill-rule:nonzero"/>
 </g>
</svg>
