<svg xmlns="http://www.w3.org/2000/svg" width="64" height="64" viewBox="0 0 51.2 51.2">
 <path d="m 6.06 10 c -1.129 0.111 -2.081 1.178 -2.063 2.313 l 0 39.38 c -0.014 1.215 1.098 2.326 2.313 2.313 l 51.38 0 c 1.215 0.014 2.326 -1.098 2.313 -2.313 l 0 -35.37 c 0.014 -1.215 -1.098 -2.326 -2.313 -2.313 l -19.688 0 l 0 -1.688 c 0.014 -1.194 -1.056 -2.294 -2.25 -2.313 l -29.438 0 c -0.083 -0.005 -0.167 -0.005 -0.25 0 z m 15.438 12 c 4.5 0 7.5 1.5 10.5 4 c 3 -2.5 6 -4 10.5 -4 l -8.5 6 l -4 0 l -8.5 -6 z m -1.5 1 l 8 6 l 0 16 l -8 -5.998 l 0 -16 z m 24 0 l 0 16 l -8 5.998 l 0 -16 l 8 -6 z m -14 7 l 4 0 l 0 16 l -4 0 l 0 -16 z" transform="scale(0.8,0.8)" style="visibility:visible;fill:#f57c00;fill-opacity:1;stroke:none;display:inline;color:#000;fill-rule:nonzero"/>
</svg>
