<svg xmlns="http://www.w3.org/2000/svg" viewBox="0 0 64 64">
 <g transform="translate(0,-988.3622)">
  <path d="m 6.06 10 c -1.129 0.111 -2.081 1.178 -2.063 2.313 l 0 39.38 c -0.014 1.215 1.098 2.326 2.313 2.313 l 51.38 0 c 1.215 0.014 2.326 -1.098 2.313 -2.313 l 0 -35.37 c 0.014 -1.215 -1.098 -2.326 -2.313 -2.313 l -19.688 0 l 0 -1.688 c 0.014 -1.194 -1.056 -2.294 -2.25 -2.313 l -29.438 0 c -0.083 0 -0.167 0 -0.25 0 z m 16.938 12 l 18 0 c 1.662 0 3 1.338 3 3 l 0 18 c 0 1.662 -1.338 3 -3 3 l -18 0 c -1.662 0 -3 -1.338 -3 -3 l 0 -18 c 0 -1.662 1.338 -3 3 -3 z m 0 3 l 0 3 l 3 0 l 0 -3 l -3 0 z m 15 0 l 0 3 l 3 0 l 0 -3 l -3 0 z m -15 7.5 l 0 3 l 3 0 l 0 -3 l -3 0 z m 15 0 l 0 3 l 3 0 l 0 -3 l -3 0 z m -15 7.5 l 0 3 l 3 0 l 0 -3 l -3 0 z m 15 0 l 0 3 l 3 0 l 0 -3 l -3 0 z" transform="translate(0,988.3622)" style="visibility:visible;fill:#f57c00;fill-opacity:1;stroke:none;display:inline;color:#000;fill-rule:nonzero"/>
 </g>
</svg>
