<svg xmlns="http://www.w3.org/2000/svg" viewBox="0 0 64 64">
 <g transform="translate(0,-988.3622)">
  <path d="m 6.06 10 c -1.129 0.111 -2.081 1.178 -2.063 2.313 l 0 39.38 c -0.014 1.215 1.098 2.326 2.313 2.313 l 51.38 0 c 1.215 0.014 2.326 -1.098 2.313 -2.313 l 0 -35.37 c 0.014 -1.215 -1.098 -2.326 -2.313 -2.313 l -19.688 0 l 0 -1.688 c 0.014 -1.194 -1.056 -2.294 -2.25 -2.313 l -29.438 0 c -0.083 0 -0.167 0 -0.25 0 z m 13.938 12 c 11.06 0.456 24 9.594 24 24 l -5 0 c 0.04 -10.09 -8.853 -17.88 -19 -19 l 0 -5 z m 0 8 c 6.83 0.695 15.761 6.217 16 16 l -5 0 c -0.061 -6.416 -5.501 -10.548 -11 -11 l 0 -5 z m 3.5 9 c 1.933 0 3.5 1.567 3.5 3.5 c 0 1.933 -1.567 3.5 -3.5 3.5 c -1.933 0 -3.5 -1.567 -3.5 -3.5 c 0 -1.933 1.567 -3.5 3.5 -3.5 z" transform="translate(0,988.3622)" style="visibility:visible;fill:#f06292;fill-opacity:1;stroke:none;display:inline;color:#000;fill-rule:nonzero"/>
 </g>
</svg>
