<svg xmlns="http://www.w3.org/2000/svg" viewBox="0 0 64 64">
 <g transform="translate(0,-988.3622)">
  <path d="m 6.06 10 c -1.129 0.111 -2.081 1.178 -2.063 2.313 l 0 39.38 c -0.014 1.215 1.098 2.326 2.313 2.313 l 51.38 0 c 1.215 0.014 2.326 -1.098 2.313 -2.313 l 0 -35.37 c 0.014 -1.215 -1.098 -2.326 -2.313 -2.313 l -19.688 0 l 0 -1.688 c 0.014 -1.194 -1.056 -2.294 -2.25 -2.313 l -29.438 0 c -0.083 0 -0.167 0 -0.25 0 z m 11.938 10 l 4.094 4.094 c 2.533 -2.539 6.03 -4.094 9.906 -4.094 c 7.732 0 14 6.268 14 14 c 0 7.732 -6.268 14 -14 14 c -7.732 0 -14 -6.268 -14 -14 c 0 -0.336 0.008 -0.67 0.031 -1 l 3.03 0 c -0.03 0.33 -0.063 0.662 -0.063 1 c 0 6.075 4.925 11 11 11 c 6.075 0 11 -4.925 11 -11 c 0 -6.075 -4.925 -11 -11 -11 c -3.038 0 -5.789 1.229 -7.781 3.219 l 3.781 3.781 l -10 0 l 0 -10 z m 13.813 4.938 a 2 2 0 0 1 2.188 2.063 l 0 6.813 l 4.188 2.438 a 2.02 2.02 0 0 1 -2 3.5 l -4.938 -2.875 a 2 2 0 0 1 -0.25 -0.125 a 2 2 0 0 1 -0.125 -0.063 a 2 2 0 0 1 -0.063 -0.063 a 2 2 0 0 1 -0.063 -0.063 a 2 2 0 0 1 -0.125 -0.063 a 2 2 0 0 1 -0.063 -0.063 a 2 2 0 0 1 -0.063 -0.063 a 2 2 0 0 1 -0.063 -0.063 a 2 2 0 0 1 -0.063 -0.063 a 2 2 0 0 1 -0.063 -0.125 a 2 2 0 0 1 -0.063 -0.063 a 2 2 0 0 1 -0.25 -1.5 a 2 2 0 0 1 0 -0.188 l 0 -7.375 a 2 2 0 0 1 1.563 -2 a 2 2 0 0 1 0.25 -0.063 z" transform="translate(0,988.3622)" style="visibility:visible;fill:#f06292;fill-opacity:1;stroke:none;display:inline;color:#000;fill-rule:nonzero"/>
 </g>
</svg>
