<svg xmlns="http://www.w3.org/2000/svg" viewBox="0 0 64 64">
 <g transform="translate(0,-988.3622)">
  <path d="m 6.06 10 c -1.129 0.111 -2.081 1.178 -2.063 2.313 l 0 39.38 c -0.014 1.215 1.098 2.326 2.313 2.313 l 51.38 0 c 1.215 0.014 2.326 -1.098 2.313 -2.313 l 0 -35.37 c 0.014 -1.215 -1.098 -2.326 -2.313 -2.313 l -19.688 0 l 0 -1.688 c 0.014 -1.194 -1.056 -2.294 -2.25 -2.313 l -29.438 0 c -0.083 0 -0.167 0 -0.25 0 z m 24.06 12 l 3.781 0 c 0.666 0 1.219 0.522 1.219 1.188 l 0 1.563 c 0.429 0.144 0.85 0.3 1.25 0.5 l 1.063 -1.094 c 0.471 -0.471 1.217 -0.471 1.688 0 l 2.75 2.719 c 0.471 0.471 0.471 1.217 0 1.688 l -1.125 1.094 c 0.195 0.393 0.359 0.798 0.5 1.219 l 1.563 0 c 0.666 0 1.188 0.553 1.188 1.219 l 0 3.813 c 0 0.666 -0.522 1.219 -1.188 1.219 l -1.563 0 c -0.141 0.421 -0.305 0.826 -0.5 1.219 l 1.125 1.094 c 0.471 0.47 0.471 1.217 0 1.688 l -2.75 2.719 c -0.471 0.471 -1.217 0.471 -1.688 0 l -1.063 -1.094 c -0.4 0.199 -0.821 0.356 -1.25 0.5 l 0 1.563 c 0 0.666 -0.553 1.188 -1.219 1.188 l -3.781 0 c -0.666 0 -1.25 -0.522 -1.25 -1.188 l 0 -1.563 c -0.421 -0.141 -0.826 -0.305 -1.219 -0.5 l -1.063 1.094 c -0.471 0.471 -1.248 0.471 -1.719 0 l -2.719 -2.719 c -0.471 -0.471 -0.471 -1.217 0 -1.688 l 1.094 -1.063 c -0.199 -0.4 -0.356 -0.821 -0.5 -1.25 l -1.531 0 c -0.666 0 -1.219 -0.553 -1.219 -1.219 l 0 -3.813 c 0 -0.666 0.553 -1.219 1.219 -1.219 l 1.531 0 c 0.144 -0.428 0.301 -0.85 0.5 -1.25 l -1.094 -1.063 c -0.471 -0.47 -0.471 -1.217 0 -1.688 l 2.719 -2.719 c 0.471 -0.471 1.248 -0.471 1.719 0 l 1.063 1.094 c 0.393 -0.194 0.798 -0.358 1.219 -0.5 l 0 -1.563 c 0 -0.666 0.584 -1.188 1.25 -1.188 z m 1.875 8.875 c -1.717 0 -3.125 1.407 -3.125 3.125 c 0 1.717 1.408 3.125 3.125 3.125 c 1.717 0 3.125 -1.408 3.125 -3.125 c 0 -1.718 -1.408 -3.125 -3.125 -3.125 z" transform="translate(0,988.3622)" style="visibility:visible;fill:#ef5350;fill-opacity:1;stroke:none;display:inline;color:#000;fill-rule:nonzero"/>
 </g>
</svg>
