<svg xmlns="http://www.w3.org/2000/svg" viewBox="0 0 64 64">
 <g transform="translate(0,-988.3622)">
  <path d="m 6.06 10 c -1.129 0.111 -2.081 1.178 -2.063 2.313 l 0 39.38 c -0.014 1.215 1.098 2.326 2.313 2.313 l 51.38 0 c 1.215 0.014 2.326 -1.098 2.313 -2.313 l 0 -35.37 c 0.014 -1.215 -1.098 -2.326 -2.313 -2.313 l -19.688 0 l 0 -1.688 c 0.014 -1.194 -1.056 -2.294 -2.25 -2.313 l -29.438 0 c -0.083 0 -0.167 0 -0.25 0 z m 22.938 14 a 7 7 0 0 1 5.469 2.688 a 5 5 0 0 1 2.531 -0.688 a 5 5 0 0 1 5 5 a 5 5 0 0 1 -1 3 l 1 0 l 0 0.094 a 5 5 0 0 1 4 4.906 a 5 5 0 0 1 -4 4.906 l 0 0.094 l -18.656 0 l -0.344 0 l -1 0 l 0 -0.094 a 5 5 0 0 1 -4 -4.906 a 5 5 0 0 1 4 -4.906 l 0 -0.094 l 0.656 0 a 7 7 0 0 1 -0.656 -3 a 7 7 0 0 1 7 -7 z" transform="translate(0,988.3622)" style="visibility:visible;fill:#ef5350;fill-opacity:1;stroke:none;display:inline;color:#000;fill-rule:nonzero"/>
 </g>
</svg>
