<svg xmlns="http://www.w3.org/2000/svg" viewBox="0 0 32 32">
 <g transform="translate(0,-1020.3622)">
  <path d="m 2.031 4 c -0.565 0.056 -1.04 0.589 -1.031 1.156 l 0 21.688 c -0.007 0.607 0.549 1.163 1.156 1.156 l 27.688 0 c 0.607 0.01 1.163 -0.549 1.156 -1.156 l 0 -19.688 c 0.007 -0.607 -0.549 -1.163 -1.156 -1.156 l -10.844 0 l 0 -0.844 c 0.007 -0.597 -0.528 -1.147 -1.125 -1.156 l -15.719 0 l -0.125 0 z m 13.219 7 l 0.75 0 c 3.309 0 6 2.691 6 6 c 0 3.309 -2.691 6 -6.75 6 c -2.559 0 -5.25 -2.691 -5.25 -6 c 0 -3.309 2.691 -6 5.25 -6 z m 1.25 0.844 c -0.003 0.026 0.003 0.034 0 0.063 c -0.054 0.509 -0.33 0.165 -0.438 0.219 c -0.107 0.054 -0.844 1.045 -0.844 0.938 c 0 -0.107 0.156 -0.25 0.156 -0.25 c 0 0 0.023 -0.453 -0.063 -0.938 c -0.233 0.03 -0.465 0.065 -0.688 0.125 l -0.688 1.125 c 0.06 0.009 0.141 0.05 0.219 0.094 c 0.375 0.214 0.518 0.412 0.625 0.438 c 0.107 0.027 0.598 -0.661 0.25 0.063 c -0.348 0.723 -0.536 0.964 -0.938 1.125 c -0.025 0.008 -0.038 0.019 -0.063 0.031 c -0.103 0.123 -0.233 0.252 -0.406 0.406 c -0.379 0.338 -0.563 0.381 -0.563 0.719 c 0 0.338 -0.016 0.581 -0.281 1.031 c -0.265 0.45 -0.426 0.444 -0.313 0.781 c 0.114 0.337 0.189 0.95 0 0.688 c -0.189 -0.262 -0.13 -0.8 -0.281 -0.5 c -0.133 0.263 -0.445 0.387 -0.469 0.656 c -0.003 0.037 -0.009 0.046 0 0.094 c 0.002 0.007 0.029 0.019 0.031 0.031 c 0.097 0.325 0.625 -0.131 0.625 0.125 c 0 0.262 -0.457 0.275 -0.344 0.5 c 0.114 0.225 0.527 -0.456 0.906 -0.344 c 0.379 0.113 0.159 0.194 0.5 0.344 c 0.341 0.15 0.531 0.306 0.531 0.531 c 0 0.225 1.051 0.094 0.938 0.469 c -0.114 0.375 -0.222 0.306 -0.563 0.719 c -0.188 0.227 -0.327 0.359 -0.438 0.469 c 0.154 0.113 0.163 0.185 0.344 0.125 c 0.241 -0.08 -0.063 -0.205 0.125 -0.313 c 0.047 -0.027 0.066 -0.038 0.094 -0.063 c 0.028 -0.022 0.068 -0.046 0.125 -0.063 c 0.114 -0.033 0.353 -0.063 0.875 -0.063 c 1.045 0 1.531 0.063 1.531 0.063 c 0 0 0.353 -0.032 0.031 0.156 c -0.235 0.137 -0.721 0.404 -0.781 0.469 c 0.024 -0.002 0.096 -0.014 0.156 -0.031 c 0.482 -0.134 1.125 -0.259 1.313 -0.313 c 0.079 -0.023 0.5 -0.219 0.844 -0.375 c 0.014 -0.032 0.017 -0.061 0.031 -0.094 c -0.265 -0.113 -0.482 -0.63 -0.406 -0.781 c 0.076 -0.151 0.248 -0.277 0.438 -0.656 c 0.189 -0.379 0.155 -0.131 -0.375 -0.813 c -0.53 -0.682 -0.797 0.04 -1.063 -0.188 c -0.265 -0.227 -0.835 -0.427 -1.063 -0.844 c -0.227 -0.417 -0.094 -0.108 -0.094 -0.563 c 0 -0.456 -0.051 -0.09 0.063 -0.469 c 0.114 -0.378 0.402 -0.422 0.781 -0.688 c 0.052 -0.037 0.135 -0.067 0.188 -0.094 c -0.085 -0.081 -0.201 -0.232 -0.438 -0.469 c 0 0 0.217 -0.486 0.406 -0.563 c 0.184 -0.073 0.282 -0.04 0.531 0.031 c 0.011 -0.041 0.02 -0.063 0.031 -0.156 c 0.038 -0.304 -0.125 -0.123 -0.125 -0.313 c 0 -0.189 0.11 -0.018 0.375 -0.094 c 0.265 -0.076 0.266 -0.576 0.531 -0.5 c 0.265 0.076 0.241 -0.128 0.469 -0.469 c 0.227 -0.341 0.022 -0.13 -0.281 -0.281 c -0.303 -0.152 -0.049 0.204 -0.125 0.469 c -0.076 0.265 -0.297 0.131 -0.563 -0.438 c -0.265 -0.568 -0.027 -0.358 0.125 -0.813 c 0.027 -0.08 0.056 -0.109 0.094 -0.156 c -0.493 -0.214 -1.034 -0.354 -1.594 -0.406 z m 0.875 2.031 c 0.047 -0.02 0.087 -0.012 0.125 0 c 0.115 0.018 0.193 0.137 0.25 0.25 c 0.03 0.062 0.004 0.08 -0.031 0.094 c 0 0 0.063 0.118 0.063 0.156 c 0 0.037 -0.07 0.017 -0.25 -0.031 c -0.135 -0.035 -0.06 -0.057 0.031 -0.125 l -0.156 0 c -0.05 0 -0.075 0.007 -0.094 0 c 0.085 0.104 -0.002 0.034 -0.125 0.063 c -0.123 0.028 0.006 -0.051 0.063 -0.156 c 0 0 0.017 0.007 0.031 0.031 c 0.024 -0.052 0.094 -0.149 0.094 -0.281 z m 3 0.313 c -0.189 0.14 -0.457 0.457 -0.656 0.656 c -0.341 0.34 0.186 0.368 0.375 0.406 c 0.189 0.038 0.371 -0.063 0.75 -0.063 c -0.007 -0.017 0.007 -0.044 0 -0.063 c -0.051 0.006 -0.125 0.031 -0.188 0.031 c -0.222 0 -0.083 -0.229 -0.031 -0.531 c -0.079 -0.155 -0.156 -0.292 -0.25 -0.438 z m -2.375 0.688 c -0.08 -0.024 -0.199 0.073 -0.344 0.156 c 0.103 0.149 -0.209 0.576 -0.375 0.875 c 0.325 -0.054 0.804 0.029 1.938 0.313 c 0 0 0.424 -0.089 0.5 0.063 c 0.027 0.053 0.17 0.082 0.344 0.094 c 0.458 -0.18 0.219 -0.354 0.219 -0.719 c 0 -0.379 -0.545 0.064 -0.469 -0.125 c 0.076 -0.189 -0.11 -0.204 -0.375 -0.469 c -0.265 -0.265 -0.217 0.689 -0.406 0.5 c -0.189 -0.188 -0.174 -0.036 -0.25 -0.188 c -0.076 -0.152 -0.344 -0.406 -0.344 -0.406 c 0 0 0.194 0.215 0.156 0.594 c -0.038 0.378 -0.563 0.031 -0.563 0.031 c 0 0 0.067 -0.024 0.219 -0.063 c 0.152 -0.038 -0.043 -0.266 -0.156 -0.531 c -0.028 -0.064 -0.059 -0.113 -0.094 -0.125 z m 3.188 1.906 c -0.042 0.03 -0.104 0.043 -0.156 0.063 c -0.417 0.152 -0.688 0.5 -0.688 0.5 c 0 0 0.472 -0.022 0.813 0.281 c 0.025 -0.206 0.031 -0.412 0.031 -0.625 c 0 -0.077 0.003 -0.143 0 -0.219 z" transform="translate(0,1020.3622)" style="visibility:visible;fill:#42a5f5;fill-opacity:1;stroke:none;display:inline;color:#000;fill-rule:nonzero"/>
 </g>
</svg>
