<svg xmlns="http://www.w3.org/2000/svg" viewBox="0 0 32 32">
 <path d="m 1 16 30 0 0 -8.844 c 0.007 -0.607 -0.549 -1.163 -1.156 -1.156 l -10.844 0 0 -0.844 c 0.007 -0.597 -0.528 -1.147 -1.125 -1.156 l -15.719 0 c -0.042 -0.002 -0.083 -0.002 -0.125 0 -0.565 0.055 -1.04 0.589 -1.031 1.156 z" style="visibility:visible;fill:#42a5f5;opacity:0.4;fill-opacity:1;stroke:none;display:inline;color:#000;fill-rule:nonzero"/>
 <path d="m 4 3 24 0 0 13 -24 0 z" style="fill:#eae7d1;fill-opacity:1"/>
 <path d="M 6,7 26,7 26,8 6,8 z" style="fill:#7a7a68;fill-opacity:1"/>
 <path d="m 17.667 13 c 0.809 0 1.333 0.451 1.333 1 l 7 0 0 -1 z" style="fill:#7a7a68;fill-opacity:1"/>
 <path d="m 1 13 0 13.844 c -0.007 0.607 0.549 1.163 1.156 1.156 l 27.688 0 c 0.607 0.007 1.163 -0.549 1.156 -1.156 l 0 -11.844 l -2 0 -6 0 -4 0 0 -1 c 0 0 0 -1 -1 -1 l -15 0 z" style="visibility:visible;fill:#42a5f5;fill-opacity:1;stroke:none;display:inline;color:#000;fill-rule:nonzero"/>
 <path d="m 6 9 20 0 0 1 -20 0 z" style="fill:#7a7a68;fill-opacity:1"/>
 <path d="m 6 11 20 0 0 1 -20 0 z" style="fill:#7a7a68;fill-opacity:1"/>
 <path d="M 6,5 26,5 26,6 6,6 z" style="fill:#7a7a68;fill-opacity:1"/>
</svg>
