<svg xmlns="http://www.w3.org/2000/svg" viewBox="0 0 32 32">
 <g transform="translate(0,-1020.3622)">
  <path d="m 2.031 4 c -0.565 0.056 -1.04 0.589 -1.031 1.156 l 0 21.688 c -0.007 0.607 0.549 1.163 1.156 1.156 l 27.688 0 c 0.607 0.01 1.163 -0.549 1.156 -1.156 l 0 -19.688 c 0.007 -0.607 -0.549 -1.163 -1.156 -1.156 l -10.844 0 l 0 -0.844 c 0.007 -0.597 -0.528 -1.147 -1.125 -1.156 l -15.719 0 l -0.125 0 z m 12.469 8.438 a 3 3 0 0 1 0.219 0 a 3 3 0 0 1 2.344 1.125 a 2.143 2.143 0 0 1 1.094 -0.281 a 2.143 2.143 0 0 1 2.125 2.156 a 2.143 2.143 0 0 1 -0.438 1.281 l 0.438 0 l 0 0.031 a 2.143 2.143 0 0 1 1.719 2.094 a 2.143 2.143 0 0 1 -1.719 2.125 l 0 0.031 l -8 0 l -0.344 0 l -0.219 0 l 0 -0.031 a 2.143 2.143 0 0 1 -1.719 -2.125 a 2.143 2.143 0 0 1 1.719 -2.094 l 0 -0.031 l 0.281 0 a 3 3 0 0 1 -0.281 -1.281 a 3 3 0 0 1 2.781 -3 z" transform="translate(0,1020.3622)" style="visibility:visible;fill:#42a5f5;fill-opacity:1;stroke:none;display:inline;color:#000;fill-rule:nonzero"/>
 </g>
</svg>
