<svg xmlns="http://www.w3.org/2000/svg" viewBox="0 0 32 32">
 <path d="m 2.031 4 c -0.565 0.055 -1.04 0.589 -1.031 1.156 l 0 21.688 c -0.007 0.607 0.549 1.163 1.156 1.156 l 27.688 0 c 0.607 0.007 1.163 -0.549 1.156 -1.156 l 0 -19.688 c 0.007 -0.607 -0.549 -1.163 -1.156 -1.156 l -10.844 0 l 0 -0.844 c 0.007 -0.597 -0.528 -1.147 -1.125 -1.156 l -15.719 0 c -0.042 -0.002 -0.083 -0.002 -0.125 0 z m 8.719 7 c 2.25 0 3.75 0.75 5.25 2 c 1.5 -1.25 3 -2 5.25 -2 l -4.25 3 l -2 0 l -4.25 -3 z m -0.75 0.5 l 4 3 l 0 8 l -4 -3 l 0 -8 z m 12 0 l 0 8 l -4 3 l 0 -8 l 4 -3 z m -7 3.5 l 2 0 l 0 8 l -2 0 l 0 -8 z" style="visibility:visible;fill:#b9ff66;opacity:1;fill-opacity:1;stroke:none;display:inline;color:#000;fill-rule:nonzero"/>
</svg>
