<svg xmlns="http://www.w3.org/2000/svg" viewBox="0 0 32 32">
 <g transform="translate(0,-1020.3622)">
  <path d="m 2.031 4 c -0.565 0.056 -1.04 0.589 -1.031 1.156 l 0 21.688 c -0.007 0.607 0.549 1.163 1.156 1.156 l 27.688 0 c 0.607 0.01 1.163 -0.549 1.156 -1.156 l 0 -19.688 c 0.007 -0.607 -0.549 -1.163 -1.156 -1.156 l -10.844 0 l 0 -0.844 c 0.007 -0.597 -0.528 -1.147 -1.125 -1.156 l -15.719 0 l -0.125 0 z m 19.469 5.75 c 0.828 0 1.5 0.672 1.5 1.5 c 0 0.828 -0.672 1.5 -1.5 1.5 c -0.828 0 -1.5 -0.672 -1.5 -1.5 c 0 -0.828 0.672 -1.5 1.5 -1.5 z m -5.5 1 c 1.151 0 2.212 0.344 3.125 0.906 c -0.085 0.188 -0.125 0.374 -0.125 0.594 c 0 0.829 0.672 1.5 1.5 1.5 c 0.219 0 0.437 -0.04 0.625 -0.125 c 0.479 0.778 0.763 1.665 0.844 2.625 l -2 0 c -0.247 -1.972 -1.93 -3.5 -3.969 -3.5 c -0.585 0 -1.124 0.149 -1.625 0.375 l -1.5 -1.5 c 0.91 -0.559 1.979 -0.875 3.125 -0.875 z m -3.938 1.5 l 1.438 1.406 c -0.904 0.733 -1.5 1.839 -1.5 3.094 c 0 1.36 0.681 2.559 1.719 3.281 l -1.438 1.438 c -1.054 -0.834 -1.814 -2.02 -2.125 -3.375 c 0.498 -0.244 0.844 -0.752 0.844 -1.344 c 0 -0.592 -0.346 -1.1 -0.844 -1.344 c 0.289 -1.256 0.967 -2.337 1.906 -3.156 z m -4.063 3 c 0.828 0 1.5 0.672 1.5 1.5 c 0 0.828 -0.672 1.5 -1.5 1.5 c -0.828 0 -1.5 -0.672 -1.5 -1.5 c 0 -0.828 0.672 -1.5 1.5 -1.5 z m 11.969 2 l 2 0 c -0.108 1.306 -0.627 2.502 -1.438 3.438 c -0.269 -0.258 -0.629 -0.438 -1.031 -0.438 c -0.828 0 -1.5 0.672 -1.5 1.5 c 0 0.22 0.04 0.437 0.125 0.625 c -0.667 0.255 -1.369 0.375 -2.125 0.375 c -1.038 0 -2.024 -0.254 -2.875 -0.719 l 1.531 -1.531 c 0.421 0.151 0.871 0.25 1.344 0.25 c 2.039 0 3.722 -1.528 3.969 -3.5 z m 0.531 4 c 0.828 0 1.5 0.672 1.5 1.5 c 0 0.828 -0.672 1.5 -1.5 1.5 c -0.828 0 -1.5 -0.672 -1.5 -1.5 c 0 -0.828 0.672 -1.5 1.5 -1.5 z" transform="translate(0,1020.3622)" style="visibility:visible;fill:#c4905e;fill-opacity:1;stroke:none;display:inline;color:#000;fill-rule:nonzero"/>
 </g>
</svg>
