<svg xmlns="http://www.w3.org/2000/svg" viewBox="0 0 32 32">
 <g transform="translate(0,-1020.3622)">
  <path d="m 2.031 4 c -0.565 0.056 -1.04 0.589 -1.031 1.156 l 0 21.688 c -0.007 0.607 0.549 1.163 1.156 1.156 l 27.688 0 c 0.607 0.01 1.163 -0.549 1.156 -1.156 l 0 -19.688 c 0.007 -0.607 -0.549 -1.163 -1.156 -1.156 l -10.844 0 l 0 -0.844 c 0.007 -0.597 -0.528 -1.147 -1.125 -1.156 l -15.719 0 l -0.125 0 z m 6.969 6 l 2.063 2.063 c 1.268 -1.261 3.01 -2.063 4.938 -2.063 c 3.866 0 7 3.134 7 7 c 0 3.866 -3.134 7 -7 7 c -3.866 0 -7 -3.134 -7 -7 l 1 0 c 0 3.314 2.686 6 6 6 c 3.314 0 6 -2.686 6 -6 c 0 -3.314 -2.686 -6 -6 -6 c -1.657 0 -3.164 0.664 -4.25 1.75 l 2.25 2.25 l -5 0 l 0 -5 z m 6.906 2.469 a 1 1 0 0 1 1.094 1.031 l 0 3.406 l 2.094 1.219 a 1.01 1.01 0 0 1 -1 1.75 l -2.469 -1.438 a 1 1 0 0 1 -0.125 -0.063 a 1 1 0 0 1 -0.063 -0.031 a 1 1 0 0 1 -0.031 -0.031 a 1 1 0 0 1 -0.031 -0.031 a 1 1 0 0 1 -0.063 -0.031 a 1 1 0 0 1 -0.031 -0.031 a 1 1 0 0 1 -0.031 -0.031 a 1 1 0 0 1 -0.031 -0.031 a 1 1 0 0 1 -0.031 -0.031 a 1 1 0 0 1 -0.031 -0.063 a 1 1 0 0 1 -0.031 -0.031 a 1 1 0 0 1 -0.125 -0.75 a 1 1 0 0 1 0 -0.094 l 0 -3.688 a 1 1 0 0 1 0.781 -1 a 1 1 0 0 1 0.125 -0.031 z" transform="translate(0,1020.3622)" style="visibility:visible;fill:#66bb6a;fill-opacity:1;stroke:none;display:inline;color:#000;fill-rule:nonzero"/>
 </g>
</svg>
