<svg xmlns="http://www.w3.org/2000/svg" viewBox="0 0 32 32">
 <g transform="translate(0,-1020.3622)">
  <path d="m 2.031 4 c -0.565 0.056 -1.04 0.589 -1.031 1.156 l 0 21.688 c -0.007 0.607 0.549 1.163 1.156 1.156 l 27.688 0 c 0.607 0.01 1.163 -0.549 1.156 -1.156 l 0 -19.688 c 0.007 -0.607 -0.549 -1.163 -1.156 -1.156 l -10.844 0 l 0 -0.844 c 0.007 -0.597 -0.528 -1.147 -1.125 -1.156 l -15.719 0 l -0.125 0 z m 15.906 7 c 1.404 0 2.563 1.099 2.563 2.469 c -0.016 0.479 -0.042 1 -0.344 2.313 c -0.056 0.171 -0.172 0.339 -0.313 0.531 c -0.127 0.173 -0.29 0.383 -0.438 0.563 c -0.032 0.328 -0.031 0.64 0 0.969 c 0.41 0.344 1.158 0.678 1.844 0.969 c 0.353 0.15 0.681 0.304 0.938 0.469 c 0.128 0.082 0.256 0.145 0.344 0.25 c 0.082 0.098 0.117 0.239 0.125 0.375 l 0.344 2.438 c 0 0.298 -0.194 0.556 -0.469 0.75 c -0.275 0.194 -0.64 0.333 -1.094 0.469 c -0.908 0.271 -2.139 0.438 -3.5 0.438 c -1.361 0 -2.592 -0.167 -3.5 -0.438 c -0.454 -0.135 -0.85 -0.275 -1.125 -0.469 c -0.275 -0.194 -0.469 -0.452 -0.469 -0.75 l 0.313 -2.438 c 0 -0.014 0.03 0.014 0.031 0 c 0.017 -0.285 0.192 -0.52 0.438 -0.688 c 0.258 -0.175 0.584 -0.324 0.938 -0.469 c 0.677 -0.277 1.427 -0.581 1.844 -0.906 c 0.054 -0.382 0.047 -0.676 0 -1.031 c -0.152 -0.169 -0.313 -0.372 -0.438 -0.531 c -0.139 -0.178 -0.227 -0.334 -0.281 -0.5 l -0.031 0 c -0.267 -1.257 -0.271 -1.842 -0.281 -2.313 c 0 -1.37 1.158 -2.469 2.563 -2.469 z m -4.781 0.469 c 0.523 0 1.01 0.198 1.375 0.5 l 0.125 0.063 l -0.063 0.094 c -0.067 0.21 -0.125 0.434 -0.125 0.625 c 0.01 0.454 0.048 0.976 0.313 2.219 c 0.039 0.121 0.039 0.234 0.063 0.375 l 0.031 0.063 l -0.031 0.031 c -0.071 0.172 -0.227 0.49 -0.438 0.781 c -0.001 0.009 0.001 0.021 0 0.031 c -0.028 0.279 -0.027 0.564 0 0.844 c 0.138 0.111 0.313 0.235 0.531 0.344 l 0.281 0.125 l -0.281 0.188 c -0.553 0.296 -1.267 0.507 -1.813 0.75 c -0.273 0.122 -0.502 0.252 -0.656 0.375 c -0.155 0.123 -0.219 0.245 -0.219 0.344 l -0.313 2.406 c 0 0.009 0 0.021 0 0.031 c -0.003 0.063 -0.011 0.125 -0.031 0.188 c -0.012 0.035 -0.004 0.086 -0.031 0.125 c -0.014 0.019 -0.062 0.041 -0.094 0.063 c -0.026 0.016 -0.051 0 -0.094 0 l -0.031 0 c -0.779 -0.083 -1.423 -0.204 -1.875 -0.406 c -0.229 -0.102 -0.428 -0.236 -0.563 -0.375 c -0.135 -0.139 -0.219 -0.285 -0.219 -0.469 l 0 -0.031 l 0.281 -1.969 c 0 -0.015 0.03 -0.017 0.031 -0.031 c 0.017 -0.231 0.144 -0.427 0.344 -0.563 c 0.211 -0.143 0.461 -0.258 0.75 -0.375 c 0.558 -0.227 1.159 -0.45 1.5 -0.719 c 0.042 -0.305 0.037 -0.59 0 -0.875 c -0.122 -0.136 -0.243 -0.308 -0.344 -0.438 c -0.116 -0.148 -0.205 -0.268 -0.25 -0.406 c -0.219 -1.032 -0.242 -1.49 -0.25 -1.875 c 0 -1.124 0.94 -2.031 2.094 -2.031 z" transform="translate(0,1020.3622)" style="visibility:visible;fill:#66bb6a;fill-opacity:1;stroke:none;display:inline;color:#000;fill-rule:nonzero"/>
 </g>
</svg>
