<svg xmlns="http://www.w3.org/2000/svg" viewBox="0 0 32 32">
 <g transform="translate(0,-1020.3622)">
  <path d="m 2.031 4 c -0.565 0.056 -1.04 0.589 -1.031 1.156 l 0 21.688 c -0.007 0.607 0.549 1.163 1.156 1.156 l 27.688 0 c 0.607 0.01 1.163 -0.549 1.156 -1.156 l 0 -19.688 c 0.007 -0.607 -0.549 -1.163 -1.156 -1.156 l -10.844 0 l 0 -0.844 c 0.007 -0.597 -0.528 -1.147 -1.125 -1.156 l -15.719 0 l -0.125 0 z m 9.125 7.469 c 0.385 -0.006 0.776 0.027 1.156 0.063 c 1.854 0.21 3.696 0.916 5.063 2.219 c 0.423 -0.08 0.852 -0.15 1.281 -0.219 c 0.633 -0.083 1.277 0.166 1.688 0.656 c 0.508 0.63 1 1.272 1.5 1.906 c 0.255 0.331 0.094 0.855 -0.313 0.938 c -0.687 0.124 -1.408 0.221 -2.094 0.344 c 0.041 0.562 -0.069 1.142 -0.406 1.594 c -0.378 0.53 -1.015 0.858 -1.656 0.938 c -0.019 0.485 0.029 0.978 0.031 1.469 c -0.003 0.233 0.031 0.459 -0.031 0.688 c -0.102 0.347 -0.551 0.547 -0.875 0.375 c -0.704 -0.363 -1.394 -0.694 -2.094 -1.063 c -0.589 -0.315 -0.984 -0.957 -1 -1.625 c -0.001 -0.382 -0.008 -0.775 0 -1.156 c 0.02 -0.091 -0.072 -0.105 -0.125 -0.156 c -1.453 -1.095 -2.435 -2.749 -2.969 -4.469 c -0.21 -0.75 -0.397 -1.561 -0.281 -2.344 c 0.367 -0.127 0.74 -0.144 1.125 -0.156 z m 2.313 1.406 c -0.448 0.041 -0.877 0.283 -1.188 0.656 c -0.621 0.746 -0.527 1.848 0.219 2.469 c 0.745 0.621 1.848 0.496 2.469 -0.25 c 0.621 -0.746 0.527 -1.848 -0.219 -2.469 c -0.373 -0.31 -0.833 -0.446 -1.281 -0.406 z m 7.156 5.375 c 0.051 0.005 0.112 0.027 0.156 0.063 c 0.374 0.309 0.756 0.627 1.125 0.938 c 0.186 0.149 0.103 0.455 -0.125 0.5 c -0.184 0.029 -0.377 0.072 -0.563 0.094 c 0.184 0.427 0.384 0.821 0.563 1.25 c 0.087 0.203 -0.131 0.482 -0.344 0.438 c -0.452 -0.1 -0.887 -0.246 -1.344 -0.344 c 0.017 0.184 0.025 0.376 0.031 0.563 c -0.003 0.228 -0.227 0.403 -0.406 0.25 c -0.369 -0.304 -0.789 -0.663 -1.156 -0.969 c -0.179 -0.143 -0.155 -0.431 0.063 -0.5 c 0.837 -0.354 1.492 -1.142 1.688 -2.031 c 0.022 -0.16 0.159 -0.264 0.313 -0.25 z" transform="translate(0,1020.3622)" style="visibility:visible;fill:#bdbdbd;fill-opacity:1;stroke:none;display:inline;color:#000;fill-rule:nonzero"/>
 </g>
</svg>
