<svg xmlns="http://www.w3.org/2000/svg" viewBox="0 0 32 32">
 <g transform="translate(0,-1020.3622)">
  <path d="m 2.031 4 c -0.565 0.056 -1.04 0.589 -1.031 1.156 l 0 21.688 c -0.007 0.607 0.549 1.163 1.156 1.156 l 27.688 0 c 0.607 0.01 1.163 -0.549 1.156 -1.156 l 0 -19.688 c 0.007 -0.607 -0.549 -1.163 -1.156 -1.156 l -10.844 0 l 0 -0.844 c 0.007 -0.597 -0.528 -1.147 -1.125 -1.156 l -15.719 0 l -0.125 0 z m 9.969 7 l 8 0 c 0.712 0 1 0.335 1 1 l 0 10 c 0 0.665 -0.569 1 -1.281 1 l -7.719 0 c -0.712 0 -1 -0.335 -1 -1 l 0 -10 c 0 -0.665 0.288 -1 1 -1 z m 0.5 1 c -0.276 0 -0.5 0.224 -0.5 0.5 c 0 0.276 0.224 0.5 0.5 0.5 c 0.276 0 0.5 -0.224 0.5 -0.5 c 0 -0.276 -0.224 -0.5 -0.5 -0.5 z m 7 0 c -0.276 0 -0.5 0.224 -0.5 0.5 c 0 0.276 0.224 0.5 0.5 0.5 c 0.276 0 0.5 -0.224 0.5 -0.5 c 0 -0.276 -0.224 -0.5 -0.5 -0.5 z m -3.5 1 c -1.105 0 -2 0.895 -2 2 c 0 1.105 0.895 2 2 2 c 1.105 0 2 -0.895 2 -2 c 0 -1.105 -0.895 -2 -2 -2 z m -3.5 4 c -0.276 0 -0.5 0.224 -0.5 0.5 c 0 0.276 0.224 0.5 0.5 0.5 c 0.276 0 0.5 -0.224 0.5 -0.5 c 0 -0.276 -0.224 -0.5 -0.5 -0.5 z m 7 0 c -0.276 0 -0.5 0.224 -0.5 0.5 c 0 0.276 0.224 0.5 0.5 0.5 c 0.276 0 0.5 -0.224 0.5 -0.5 c 0 -0.276 -0.224 -0.5 -0.5 -0.5 z m -7 4 c -0.277 0 -0.5 0.223 -0.5 0.5 c 0 0.277 0.223 0.5 0.5 0.5 l 7 0 c 0.277 0 0.5 -0.223 0.5 -0.5 c 0 -0.277 -0.223 -0.5 -0.5 -0.5 l -7 0 z" transform="translate(0,1020.3622)" style="visibility:visible;fill:#bdbdbd;fill-opacity:1;stroke:none;display:inline;color:#000;fill-rule:nonzero"/>
 </g>
</svg>
