<svg xmlns="http://www.w3.org/2000/svg" viewBox="0 0 32 32">
 <g transform="translate(0,-1020.3622)">
  <path d="m 2.031 4 c -0.565 0.056 -1.04 0.589 -1.031 1.156 l 0 21.688 c -0.007 0.607 0.549 1.163 1.156 1.156 l 27.688 0 c 0.607 0.01 1.163 -0.549 1.156 -1.156 l 0 -19.688 c 0.007 -0.607 -0.549 -1.163 -1.156 -1.156 l -10.844 0 l 0 -0.844 c 0.007 -0.597 -0.528 -1.147 -1.125 -1.156 l -15.719 0 l -0.125 0 z m 17.719 7 c 1.605 0 2.906 1.354 2.906 3 c 0 1.223 -0.72 2.253 -1.75 2.719 c -0.011 0.004 -0.02 0.019 -0.031 0.031 l -1.531 2.813 l -0.031 0 c 0.274 0.362 0.438 0.791 0.438 1.281 c 0 1.177 -0.946 2.156 -2.094 2.156 c -1.127 0 -2.064 -0.943 -2.094 -2.094 l -2.906 -1.344 c -0.348 0.267 -0.785 0.438 -1.25 0.438 c -1.146 0 -2.094 -0.979 -2.094 -2.156 c 0 -1.176 0.948 -2.125 2.094 -2.125 c 1.148 0 2.094 0.95 2.094 2.125 l 2.875 1.313 c 0.248 -0.199 0.557 -0.338 0.875 -0.406 l 0 -3.25 c -0.258 -0.447 -0.438 -0.947 -0.438 -1.5 c 0 -1.648 1.33 -3 2.938 -3 z m 0 1 c -1.081 0 -1.938 0.893 -1.938 2 c 0 1.109 0.856 1.969 1.938 1.969 c 1.079 0 1.938 -0.86 1.938 -1.969 c 0 -1.107 -0.858 -2 -1.938 -2 z m 0 0.719 c 0.692 0 1.25 0.57 1.25 1.281 c 0 0.709 -0.558 1.25 -1.25 1.25 c -0.69 0 -1.25 -0.541 -1.25 -1.25 c 0 -0.711 0.56 -1.281 1.25 -1.281 z m -8.344 3.844 c -0.835 0 -1.25 0.425 -1.25 1.281 c 0 0.858 0.415 1.281 1.25 1.281 c 0.105 0 0.19 0.015 0.281 0 l -0.563 -0.281 c -0.474 -0.204 -0.67 -0.764 -0.469 -1.25 c 0.201 -0.486 0.745 -0.707 1.219 -0.5 l 0.719 0.313 c -0.124 -0.574 -0.502 -0.844 -1.188 -0.844 z m 6.25 2.844 c -0.184 0 -0.371 0.059 -0.531 0.125 l 0.938 0.406 c 0.474 0.204 0.701 0.764 0.5 1.25 c -0.201 0.488 -0.776 0.738 -1.25 0.531 l -0.969 -0.438 c 0.173 0.583 0.685 0.969 1.313 0.969 c 0.773 0 1.375 -0.614 1.375 -1.406 c 0 -0.792 -0.602 -1.438 -1.375 -1.438 z" transform="translate(0,1020.3622)" style="visibility:visible;fill:#bdbdbd;fill-opacity:1;stroke:none;display:inline;color:#000;fill-rule:nonzero"/>
 </g>
</svg>
