<svg xmlns="http://www.w3.org/2000/svg" viewBox="0 0 32 32">
 <g transform="translate(0,-1020.3622)">
  <path d="m 2.031 4 c -0.565 0.056 -1.04 0.589 -1.031 1.156 l 0 21.688 c -0.007 0.607 0.549 1.163 1.156 1.156 l 27.688 0 c 0.607 0.01 1.163 -0.549 1.156 -1.156 l 0 -19.688 c 0.007 -0.607 -0.549 -1.163 -1.156 -1.156 l -10.844 0 l 0 -0.844 c 0.007 -0.597 -0.528 -1.147 -1.125 -1.156 l -15.719 0 l -0.125 0 z m 13.969 7 c 0.554 0 1 0.446 1 1 l 0 5 l 2 0 c 1 0 1 0 0 1 l -2 2 c -1 1 -1 1 -2 0 l -2 -2 c -1 -1 -1 -1 0 -1 l 2 0 l 0 -5 c 0 -0.554 0.446 -1 1 -1 z m -6.03 7 l 0.063 0 c 0.534 0 0.969 0.446 0.969 1 l 0 3 l 10 0 l 0 -3 c 0 -0.554 0.434 -1 0.969 -1 l 0.063 0 c 0.534 0 0.969 0.446 0.969 1 l 0 3.938 l 0 0.125 c -0.002 0.035 -0.026 0.06 -0.031 0.094 c -0.015 0.091 -0.026 0.17 -0.063 0.25 c -0.05 0.114 -0.097 0.226 -0.188 0.313 c -0.087 0.09 -0.197 0.137 -0.313 0.188 c -0.101 0.045 -0.196 0.083 -0.313 0.094 c -0.021 0.001 -0.042 0 -0.063 0 c -0.011 0 -0.02 0 -0.031 0 l -0.031 0 l -11.938 0 l -0.031 0 c -0.034 0 -0.061 0.003 -0.094 0 c -0.116 -0.011 -0.211 -0.048 -0.313 -0.094 c -0.219 -0.096 -0.399 -0.278 -0.5 -0.5 c -0.037 -0.08 -0.048 -0.159 -0.063 -0.25 c -0.004 -0.035 -0.031 -0.057 -0.031 -0.094 l 0 -0.063 l 0 -0.063 l 0 -3.938 c 0 -0.554 0.434 -1 0.969 -1 z" transform="translate(0,1020.3622)" style="visibility:visible;fill:#f57c00;fill-opacity:1;stroke:none;display:inline;color:#000;fill-rule:nonzero"/>
 </g>
</svg>
