<svg xmlns="http://www.w3.org/2000/svg" viewBox="0 0 32 32">
 <g transform="translate(0,-1020.3622)">
  <path d="m 2.031 4 c -0.565 0.056 -1.04 0.589 -1.031 1.156 l 0 21.688 c -0.007 0.607 0.549 1.163 1.156 1.156 l 27.688 0 c 0.607 0.01 1.163 -0.549 1.156 -1.156 l 0 -19.688 c 0.007 -0.607 -0.549 -1.163 -1.156 -1.156 l -10.844 0 0 -0.844 c 0.007 -0.597 -0.528 -1.147 -1.125 -1.156 l -15.719 0 z m 13.969 7.25 c 0.25 0 0.684 0.118 1 0.75 l 2 2 0 -1 c 0 -0.554 0 -1 1 -1 1 0 1 0.446 1 1 l 0 3 c 2.288 2 3 2 0 2 l 0 5 c 0 1.108 -0.892 2 -2 2 l -1.5 0 0 -5 -3 0 0 5 -1.5 0 c -1.108 0 -2 -0.892 -2 -2 l 0 -5 c -3 0 -2.203 0 0 -2 l 4 -4 c 0.5 -0.5 0.75 -0.75 1 -0.75 z" transform="translate(0,1020.3622)" style="visibility:visible;fill:#7e57c2;fill-opacity:1;stroke:none;display:inline;color:#000;fill-rule:nonzero"/>
 </g>
</svg>
