<svg xmlns="http://www.w3.org/2000/svg" viewBox="0 0 32 32">
 <g transform="translate(0,-1020.3622)">
  <path d="m 2.031 4 c -0.565 0.056 -1.04 0.589 -1.031 1.156 l 0 21.688 c -0.007 0.607 0.549 1.163 1.156 1.156 l 27.688 0 c 0.607 0.01 1.163 -0.549 1.156 -1.156 l 0 -19.688 c 0.007 -0.607 -0.549 -1.163 -1.156 -1.156 l -10.844 0 l 0 -0.844 c 0.007 -0.597 -0.528 -1.147 -1.125 -1.156 l -15.719 0 l -0.125 0 z m 13.03 7 l 1.906 0 c 0.333 0 0.594 0.261 0.594 0.594 l 0 0.781 c 0.214 0.072 0.425 0.15 0.625 0.25 l 0.531 -0.531 c 0.235 -0.235 0.608 -0.235 0.844 0 l 1.375 1.344 c 0.235 0.235 0.235 0.608 0 0.844 l -0.563 0.563 c 0.097 0.197 0.179 0.383 0.25 0.594 l 0.781 0 c 0.333 0 0.594 0.261 0.594 0.594 l 0 1.938 c 0 0.333 -0.261 0.594 -0.594 0.594 l -0.781 0 c -0.071 0.21 -0.153 0.397 -0.25 0.594 l 0.563 0.563 c 0.235 0.235 0.235 0.608 0 0.844 l -1.375 1.344 c -0.235 0.235 -0.608 0.235 -0.844 0 l -0.531 -0.531 c -0.2 0.1 -0.411 0.178 -0.625 0.25 l 0 0.781 c 0 0.333 -0.261 0.594 -0.594 0.594 l -1.906 0 c -0.333 0 -0.625 -0.261 -0.625 -0.594 l 0 -0.781 c -0.21 -0.071 -0.397 -0.152 -0.594 -0.25 l -0.563 0.531 c -0.235 0.235 -0.608 0.235 -0.844 0 l -1.344 -1.344 c -0.235 -0.235 -0.235 -0.608 0 -0.844 l 0.531 -0.531 c -0.1 -0.2 -0.178 -0.411 -0.25 -0.625 l -0.75 0 c -0.333 0 -0.625 -0.261 -0.625 -0.594 l 0 -1.938 c 0 -0.333 0.292 -0.594 0.625 -0.594 l 0.75 0 c 0.072 -0.214 0.15 -0.425 0.25 -0.625 l -0.531 -0.531 c -0.235 -0.235 -0.235 -0.608 0 -0.844 l 1.344 -1.344 c 0.235 -0.235 0.608 -0.235 0.844 0 l 0.563 0.531 c 0.197 -0.097 0.383 -0.179 0.594 -0.25 l 0 -0.781 c 0 -0.333 0.292 -0.594 0.625 -0.594 z m 0.938 4.438 c -0.859 0 -1.563 0.704 -1.563 1.563 c 0 0.859 0.704 1.563 1.563 1.563 c 0.859 0 1.563 -0.704 1.563 -1.563 c 0 -0.859 -0.704 -1.563 -1.563 -1.563 z" transform="translate(0,1020.3622)" style="visibility:visible;fill:#ef5350;fill-opacity:1;stroke:none;display:inline;color:#000;fill-rule:nonzero"/>
 </g>
</svg>
