<svg xmlns="http://www.w3.org/2000/svg" viewBox="0 0 32 32">
 <g transform="translate(0,-1020.3622)">
  <path d="m 2.031 4 c -0.565 0.056 -1.04 0.589 -1.031 1.156 l 0 21.688 c -0.007 0.607 0.549 1.163 1.156 1.156 l 27.688 0 c 0.607 0.01 1.163 -0.549 1.156 -1.156 l 0 -19.688 c 0.007 -0.607 -0.549 -1.163 -1.156 -1.156 l -10.844 0 l 0 -0.844 c 0.007 -0.597 -0.528 -1.147 -1.125 -1.156 l -15.719 0 l -0.125 0 z m 15.969 6 c 2.761 0 5 2.239 5 5 c 0 2.761 -2.239 5 -5 5 c -1.06 0 -2.035 -0.313 -2.844 -0.875 c -0.049 0.12 -0.121 0.246 -0.219 0.344 l -4.219 4.25 c -0.392 0.392 -1.046 0.392 -1.438 0 c -0.392 -0.392 -0.392 -1.046 0 -1.438 l 4.25 -4.219 c 0.098 -0.098 0.223 -0.17 0.344 -0.219 c -0.562 -0.809 -0.875 -1.784 -0.875 -2.844 c 0 -2.761 2.239 -5 5 -5 z m 0 2 c -1.657 0 -3 1.343 -3 3 c 0 1.657 1.343 3 3 3 c 1.657 0 3 -1.343 3 -3 c 0 -1.657 -1.343 -3 -3 -3 z" transform="translate(0,1020.3622)" style="visibility:visible;fill:#8d6e63;fill-opacity:1;stroke:none;display:inline;color:#000;fill-rule:nonzero"/>
 </g>
</svg>
