<svg xmlns="http://www.w3.org/2000/svg" viewBox="0 0 32 32">
 <g transform="translate(0,-1020.3622)">
  <path d="m 2.031 4 c -0.565 0.056 -1.04 0.589 -1.031 1.156 l 0 21.688 c -0.007 0.607 0.549 1.163 1.156 1.156 l 27.688 0 c 0.607 0.01 1.163 -0.549 1.156 -1.156 l 0 -19.688 c 0.007 -0.607 -0.549 -1.163 -1.156 -1.156 l -10.844 0 0 -0.844 c 0.007 -0.597 -0.528 -1.147 -1.125 -1.156 l -15.719 0 z m 18.5 7 c 0.104 -0.001 0.212 0.007 0.313 0.031 0.643 0.563 1.16 1.25 1.531 2 0.004 0.008 -0.004 0.021 0 0.031 0.092 0.248 0.218 0.496 0.313 0.813 0.053 0.177 0.115 0.368 0.188 0.563 c 0.079 0.384 0.125 0.782 0.125 1.188 0 3.527 -3.156 7.375 -7.03 7.375 -3.627 0 -6.602 -3.474 -6.969 -6.688 c 0.098 -0.043 2.032 -2.211 5.906 -0.594 4.706 1.964 6.773 0.019 6.969 -0.813 c 0.196 -0.832 -0.061 -2.406 -0.844 -2.406 c -0.783 0 -1.756 0.357 -1.625 -0.594 0.082 -0.594 0.607 -0.896 1.125 -0.906 z m -5.03 1 c 0.276 0 0.5 0.224 0.5 0.5 0 0.276 -0.224 0.5 -0.5 0.5 -0.276 0 -0.5 -0.224 -0.5 -0.5 0 -0.276 0.224 -0.5 0.5 -0.5 z m 2.5 1 c 0.552 0 1 0.448 1 1 0 0.552 -0.448 1 -1 1 -0.552 0 -1 -0.448 -1 -1 0 -0.552 0.448 -1 1 -1 z" transform="translate(0,1020.3622)" style="visibility:visible;fill:#b9ff66;fill-opacity:1;stroke:none;display:inline;color:#000;fill-rule:nonzero"/>
 </g>
</svg>
