<svg xmlns="http://www.w3.org/2000/svg" viewBox="0 0 32 32">
 <g transform="translate(0,-1020.3622)">
  <path d="m 2.031 4 c -0.565 0.056 -1.04 0.589 -1.031 1.156 l 0 21.688 c -0.007 0.607 0.549 1.163 1.156 1.156 l 27.688 0 c 0.607 0.01 1.163 -0.549 1.156 -1.156 l 0 -19.688 c 0.007 -0.607 -0.549 -1.163 -1.156 -1.156 l -10.844 0 l 0 -0.844 c 0.007 -0.597 -0.528 -1.147 -1.125 -1.156 l -15.719 0 l -0.125 0 z m 8.969 6 l 10 0 c 1.108 0 2 0.892 2 2 l 0 7 c 0 1.108 -0.892 2 -2 2 l -3 0 l 2 2 c 1 1 1 1 0 1 l -8 0 c -1 0 -1 0 0 -1 l 2 -2 l -3 0 c -1.108 0 -2 -0.892 -2 -2 l 0 -7 c 0 -1.108 0.892 -2 2 -2 z m 0 2 l 0 7 l 10 0 l 0 -7 l -10 0 z m 2.344 1 c 0.094 -0.016 0.156 0 0.156 0 l 2 0 l 2 2 l 0 2 c 0 0 0 1 -1 1 l -3 0 c 0 0 -1 0 -1 -1 l 0 -3 c 0 -0.75 0.562 -0.953 0.844 -1 z m 0.156 1 l 0 3 l 3 0 l 0 -1.5 l -1.5 0 l 0 -1.5 l -1.5 0 z" transform="translate(0,1020.3622)" style="visibility:visible;fill:#b9ff66;fill-opacity:1;stroke:none;display:inline;color:#000;fill-rule:nonzero"/>
 </g>
</svg>
