<svg xmlns="http://www.w3.org/2000/svg" viewBox="0 0 32 32">
 <g transform="translate(0,-1020.3622)">
  <path d="m 2.031 4 c -0.565 0.056 -1.04 0.589 -1.031 1.156 l 0 21.688 c -0.007 0.607 0.549 1.163 1.156 1.156 l 27.688 0 c 0.607 0.01 1.163 -0.549 1.156 -1.156 l 0 -19.688 c 0.007 -0.607 -0.549 -1.163 -1.156 -1.156 l -10.844 0 l 0 -0.844 c 0.007 -0.597 -0.528 -1.147 -1.125 -1.156 l -15.719 0 l -0.125 0 z m 8.969 6 l 10 0 c 1.108 0 2 0.892 2 2 l 0 10 c 0 1.108 -0.892 2 -2 2 l -1 0 l -9 0 c -1.108 0 -2 -0.892 -2 -2 l 0 -3 l 0 -7 c 0 -1.108 0.892 -2 2 -2 z m 0 2 l 0 4.5 l 2 -2.5 l 3.281 3.688 l 2.219 -2.188 l 2.5 3.625 l 0 -7.125 l -10 0 z" transform="translate(0,1020.3622)" style="visibility:visible;fill:#b9ff66;fill-opacity:1;stroke:none;display:inline;color:#000;fill-rule:nonzero"/>
 </g>
</svg>
