<svg xmlns="http://www.w3.org/2000/svg" viewBox="0 0 32 32">
 <path d="m 1 13 0 13.844 c -0.007 0.607 0.549 1.163 1.156 1.156 l 27.688 0 c 0.607 0.007 1.163 -0.549 1.156 -1.156 l 0 -11.844 l -2 0 -6 0 -4 0 0 -1 c 0 0 0 -1 -1 -1 l -15 0 z" style="visibility:visible;fill:#7e57c2;fill-opacity:1;stroke:none;display:inline;color:#000;fill-rule:nonzero"/>
 <path d="m 1 13 2 0 15 0 1 1 0 1 10 0 0 0 2 0 0 -7.844 c 0.007 -0.607 -0.549 -1.163 -1.156 -1.156 l -10.844 0 0 -0.844 c 0.007 -0.597 -0.528 -1.147 -1.125 -1.156 l -15.719 0 c -0.042 -0.002 -0.083 -0.002 -0.125 0 -0.565 0.055 -1.04 0.589 -1.031 1.156 z" style="visibility:visible;fill:#7e57c2;opacity:0.4;fill-opacity:1;stroke:none;display:inline;color:#000;fill-rule:nonzero"/>
</svg>
