<svg xmlns="http://www.w3.org/2000/svg" viewBox="0 0 16 16">
 <path d="m 0.438 4 c -0.241 0.047 -0.435 0.303 -0.438 0.563 l 0 10.844 c -0.007 0.305 0.243 0.602 0.531 0.594 l 8.469 0 l 0 -2 l -3 0 l 0 -5 l 3 0 l 0 -3 l -1 0 l 0 -1.281 c -0.007 -0.295 -0.346 -0.726 -0.625 -0.719 l -6.844 0 c -0.036 -0.004 -0.057 -0.004 -0.094 0 z" style="visibility:visible;fill:#8d6e63;opacity:0.4;fill-opacity:1;stroke:none;display:inline;color:#000;fill-rule:nonzero"/>
 <path d="m 2.438 0 c -0.241 0.047 -0.435 0.303 -0.438 0.563 l 0 10.844 c -0.007 0.305 0.243 0.602 0.531 0.594 l 3.469 0 l 0 -3 l 3 0 l 0 -3 l 5 0 l 0 3 l 2 0 l 0 -6.406 c 0.007 -0.305 -0.274 -0.602 -0.563 -0.594 l -5.438 0 l 0 -1.281 c -0.007 -0.295 -0.346 -0.726 -0.625 -0.719 l -6.844 0 c -0.036 -0.004 -0.057 -0.004 -0.094 0 z" style="visibility:visible;fill:#8d6e63;fill-opacity:1;stroke:none;display:inline;color:#000;fill-rule:nonzero"/>
 <path d="m 16 10 -3 0 0 -3 -3 0 0 3 -3 0 0 3 3 0 0 3 3 0 0 -3 3 0 z" style="fill:#859900"/>
</svg>
