<svg xmlns="http://www.w3.org/2000/svg" viewBox="0 0 24 24">
 <g transform="translate(0,-1028.3622)">
  <path d="m 2.625 1032.36 c -0.347 0.063 -0.625 0.397 -0.625 0.75 l 0 14.5 c 0.006 0.391 0.359 0.744 0.75 0.75 l 18.5 0 c 0.391 -0.01 0.744 -0.359 0.75 -0.75 l 0 -12.438 c -0.006 -0.391 -0.359 -0.806 -0.75 -0.813 l -7.25 0 0 -1.25 c -0.006 -0.391 -0.359 -0.744 -0.75 -0.75 l -10.625 0 z m 5.344 4.406 c 0.321 0 0.651 0.034 0.969 0.062 1.545 0.175 3.049 0.758 4.187 1.844 0.353 -0.067 0.736 -0.13 1.094 -0.188 0.527 -0.07 1.064 0.154 1.406 0.563 0.423 0.524 0.833 1.034 1.25 1.563 0.212 0.276 0.058 0.713 -0.281 0.781 -0.573 0.104 -1.147 0.21 -1.719 0.313 0.034 0.468 -0.063 0.936 -0.344 1.313 -0.315 0.441 -0.872 0.715 -1.406 0.781 -0.016 0.404 0.06 0.81 0.063 1.219 -0.003 0.194 0.02 0.403 -0.031 0.594 -0.085 0.289 -0.449 0.456 -0.719 0.313 -0.587 -0.303 -1.167 -0.599 -1.75 -0.906 -0.491 -0.263 -0.831 -0.787 -0.844 -1.344 -0.001 -0.319 -0.006 -0.651 0 -0.969 0.016 -0.076 -0.049 -0.083 -0.094 -0.125 -1.211 -0.912 -2.024 -2.285 -2.469 -3.719 -0.175 -0.625 -0.346 -1.285 -0.25 -1.938 0.306 -0.106 0.616 -0.146 0.938 -0.156 z m 1.938 1.188 c -0.373 0.034 -0.773 0.22 -1.031 0.531 -0.517 0.622 -0.402 1.545 0.219 2.063 0.621 0.518 1.545 0.403 2.062 -0.219 0.517 -0.622 0.402 -1.545 -0.219 -2.063 -0.311 -0.259 -0.658 -0.347 -1.031 -0.313 z m 5.937 4.469 c 0.043 0 0.12 0.034 0.156 0.062 0.312 0.257 0.598 0.491 0.906 0.75 0.155 0.124 0.096 0.399 -0.094 0.438 -0.153 0.024 -0.314 0.044 -0.469 0.062 0.153 0.356 0.32 0.705 0.469 1.063 0.072 0.169 -0.104 0.381 -0.281 0.344 -0.377 -0.083 -0.744 -0.199 -1.125 -0.281 0.014 0.153 0.026 0.313 0.031 0.469 -0.002 0.191 -0.194 0.346 -0.344 0.219 -0.307 -0.254 -0.663 -0.557 -0.969 -0.813 -0.149 -0.119 -0.119 -0.348 0.063 -0.406 0.697 -0.295 1.243 -0.947 1.406 -1.688 0.018 -0.134 0.122 -0.231 0.25 -0.219 z" style="visibility:visible;fill:#8d6e63;fill-opacity:1;stroke:none;display:inline;color:#000;fill-rule:nonzero"/>
 </g>
</svg>
