<svg xmlns="http://www.w3.org/2000/svg" viewBox="0 0 24 24">
 <g transform="translate(0,-1028.3622)">
  <path d="m 2.625 1032.36 c -0.347 0.063 -0.625 0.397 -0.625 0.75 l 0 14.5 c 0.006 0.391 0.359 0.744 0.75 0.75 l 18.5 0 c 0.391 -0.01 0.744 -0.359 0.75 -0.75 l 0 -12.438 c -0.006 -0.391 -0.359 -0.806 -0.75 -0.813 l -7.25 0 0 -1.25 c -0.006 -0.391 -0.359 -0.744 -0.75 -0.75 l -10.625 0 z m 4.375 4 10 0 c 0.554 0 1 0.446 1 1 l 0 6 c 0 0.554 -0.446 1 -1 1 l -3 0 2 1 c 2 1 1 1 0 1 l -8 0 c -1 0 -2 0 0 -1 l 2 -1 -3 0 c -0.554 0 -1 -0.446 -1 -1 l 0 -6 c 0 -0.554 0.446 -1 1 -1 z m 1 1 c -0.554 0 -1 0.446 -1 1 l 0 3.906 c 0 0.554 0.446 1.094 1 1.094 l 2 0 4 0 2 0 c 0.554 0 1 -0.54 1 -1.094 l 0 -3.906 c 0 -0.554 -0.446 -1 -1 -1 l -8 0 z m 1 1 4 0 0 4 -4 0 0 -4 z m 1 1 0 2 2 0 -1 -1 -1 -1 z" style="visibility:visible;fill:#c4905e;fill-opacity:1;stroke:none;display:inline;color:#000;fill-rule:nonzero"/>
 </g>
</svg>
