<svg xmlns="http://www.w3.org/2000/svg" viewBox="0 0 24 24">
 <path d="m 2.625 4 c -0.347 0.064 -0.625 0.397 -0.625 0.75 l 0 14.5 c 0.006 0.391 0.359 0.744 0.75 0.75 l 18.5 0 c 0.391 -0.006 0.744 -0.359 0.75 -0.75 l 0 -12.438 c -0.006 -0.391 -0.359 -0.806 -0.75 -0.813 l -7.25 0 0 -1.25 c -0.006 -0.391 -0.359 -0.744 -0.75 -0.75 l -10.625 0 m 5 4 c 1.875 0 3.125 0.624 4.375 1.666 1.25 -1.042 2.5 -1.666 4.375 -1.666 l -3.375 2.5 -2 0 -3.375 -2.5 m -0.625 0.834 l 3 2.082 l 0 6.25 -3 -2.082 0 -6.25 z m 10 0 0 6.25 -3 2.082 0 -6.25 3 -2.082 z m -6 3.166 l 2 0 0 6 -2 0 0 -6 z" style="visibility:visible;fill:#c4905e;fill-opacity:1;stroke:none;display:inline;color:#000;fill-rule:nonzero"/>
</svg>
