<svg xmlns="http://www.w3.org/2000/svg" viewBox="0 0 24 24">
 <path d="m 2 11 0 8.25 c 0.006 0.391 0.359 0.744 0.75 0.75 l 18.5 0 c 0.391 -0.006 0.744 -0.359 0.75 -0.75 l 0 -6.25 -2 0 -4 0 -2 0 0 -1 -1 -1 -9 0 -2 0 z" style="visibility:visible;fill:#c4905e;fill-opacity:1;stroke:none;display:inline;color:#000;fill-rule:nonzero"/>
 <path d="m 2 11 2 0 l 9 0 l 1 1 0 1 6 0 0 0 2 0 0 -6.188 c -0.006 -0.391 -0.359 -0.744 -0.75 -0.75 l -7.25 0 0 -1.313 c -0.006 -0.391 -0.359 -0.744 -0.75 -0.75 l -10.5 0 c -0.042 -0.003 -0.083 -0.003 -0.125 0 -0.347 0.064 -0.625 0.397 -0.625 0.75 z" style="visibility:visible;fill:#c4905e;opacity:0.4;fill-opacity:1;stroke:none;display:inline;color:#000;fill-rule:nonzero"/>
</svg>
