<svg xmlns="http://www.w3.org/2000/svg" viewBox="0 0 24 24">
 <g transform="translate(0,-1028.3622)">
  <path d="m 2.625 1032.36 c -0.347 0.063 -0.625 0.397 -0.625 0.75 l 0 14.5 c 0.006 0.391 0.359 0.744 0.75 0.75 l 18.5 0 c 0.391 -0.01 0.744 -0.359 0.75 -0.75 l 0 -12.438 c -0.006 -0.391 -0.359 -0.806 -0.75 -0.813 l -7.25 0 0 -1.25 c -0.006 -0.391 -0.359 -0.744 -0.75 -0.75 l -10.625 0 z m 8.594 4 1.594 0 c 0.277 0 0.469 0.223 0.469 0.5 l 0 0.656 c 0.179 0.06 0.365 0.104 0.531 0.188 l 0.469 -0.438 c 0.196 -0.196 0.491 -0.196 0.688 0 l 1.125 1.125 c 0.196 0.196 0.196 0.491 0 0.688 l -0.438 0.469 c 0.081 0.164 0.129 0.356 0.188 0.531 l 0.656 0 c 0.277 0 0.5 0.191 0.5 0.469 l 0 1.625 c 0 0.277 -0.223 0.469 -0.5 0.469 l -0.656 0 c -0.059 0.176 -0.106 0.367 -0.188 0.531 l 0.438 0.469 c 0.196 0.196 0.196 0.491 0 0.688 l -1.125 1.125 c -0.196 0.196 -0.491 0.196 -0.688 0 l -0.469 -0.438 c -0.167 0.083 -0.353 0.128 -0.531 0.188 l 0 0.656 c 0 0.277 -0.191 0.5 -0.469 0.5 l -1.594 0 c -0.277 0 -0.5 -0.223 -0.5 -0.5 l 0 -0.656 c -0.175 -0.059 -0.367 -0.105 -0.531 -0.188 l -0.437 0.438 c -0.196 0.196 -0.523 0.196 -0.719 0 l -1.125 -1.125 c -0.196 -0.196 -0.196 -0.491 0 -0.688 l 0.438 -0.469 c -0.083 -0.167 -0.128 -0.353 -0.188 -0.531 l -0.656 0 c -0.277 0 -0.5 -0.192 -0.5 -0.469 l 0 -1.625 c 0 -0.277 0.223 -0.469 0.5 -0.469 l 0.656 0 c 0.06 -0.179 0.104 -0.365 0.188 -0.531 l -0.438 -0.469 c -0.196 -0.196 -0.196 -0.491 0 -0.688 l 1.125 -1.125 c 0.196 -0.196 0.523 -0.196 0.719 0 l 0.437 0.438 c 0.164 -0.081 0.356 -0.129 0.531 -0.188 l 0 -0.656 c 0 -0.277 0.223 -0.5 0.5 -0.5 z m 0.781 3 c -1.105 0 -2 0.895 -2 2 0 1.105 0.895 2 2 2 1.105 0 2 -0.895 2 -2 0 -1.105 -0.895 -2 -2 -2 z" style="visibility:visible;fill:#f06292;fill-opacity:1;stroke:none;display:inline;color:#000;fill-rule:nonzero"/>
 </g>
</svg>
