<svg xmlns="http://www.w3.org/2000/svg" viewBox="0 0 24 24">
 <g transform="translate(0,-1028.3622)">
  <path d="m 2.625 1032.36 c -0.347 0.063 -0.625 0.397 -0.625 0.75 l 0 14.5 c 0.006 0.391 0.359 0.744 0.75 0.75 l 18.5 0 c 0.391 -0.01 0.744 -0.359 0.75 -0.75 l 0 -12.438 c -0.006 -0.391 -0.359 -0.806 -0.75 -0.813 l -7.25 0 0 -1.25 c -0.006 -0.391 -0.359 -0.744 -0.75 -0.75 l -10.625 0 z m 9.375 4 c 0.554 0 1 0.446 1 1 l 0 4 1.531 0 c 0.632 0 0.632 -0.01 0 0.625 l -1.906 1.906 c -0.632 0.632 -0.618 0.632 -1.25 0 l -1.906 -1.906 c -0.632 -0.632 -0.632 -0.625 0 -0.625 l 1.531 0 0 -4 c 0 -0.554 0.446 -1 1 -1 z m -4.625 4 0.25 0 c 0.209 0 0.375 0.223 0.375 0.5 l 0 4.5 8 0 0 -4.5 c 0 -0.277 0.223 -0.5 0.5 -0.5 0.277 0 0.5 0.223 0.5 0.5 l 0 5 c 0 0.069 -0.006 0.128 -0.031 0.188 -0.003 0.01 0.003 0.023 0 0.031 -0.08 0.168 -0.269 0.281 -0.469 0.281 l -8.875 0 -0.125 0 -0.125 0 c -0.022 0 -0.041 -0.026 -0.063 -0.031 -0.079 -0.018 -0.134 -0.054 -0.188 -0.125 -0.021 -0.028 -0.047 -0.06 -0.063 -0.094 -0.012 -0.022 -0.023 -0.039 -0.031 -0.062 -0.019 -0.06 -0.031 -0.118 -0.031 -0.188 l 0 -5 c 0 -0.277 0.166 -0.5 0.375 -0.5 z" style="visibility:visible;fill:#ef5350;fill-opacity:1;stroke:none;display:inline;color:#000;fill-rule:nonzero"/>
 </g>
</svg>
