<svg xmlns="http://www.w3.org/2000/svg" viewBox="0 0 24 24">
 <g transform="translate(0,-1028.3622)">
  <path d="m 2.625 1032.36 c -0.347 0.063 -0.625 0.397 -0.625 0.75 l 0 14.5 c 0.006 0.391 0.359 0.744 0.75 0.75 l 18.5 0 c 0.391 -0.01 0.744 -0.359 0.75 -0.75 l 0 -12.438 c -0.006 -0.391 -0.359 -0.806 -0.75 -0.813 l -7.25 0 0 -1.25 c -0.006 -0.391 -0.359 -0.744 -0.75 -0.75 l -10.625 0 z m 7.875 5 a 3 2.8 0 0 1 0.219 0 3 2.8 0 0 1 2.344 1.063 2.143 2 0 0 1 1.094 -0.25 2.143 2 0 0 1 2.125 2 2.143 2 0 0 1 -0.438 1.188 l 0.438 0 0 0.031 a 2.143 2 0 0 1 1.719 1.969 2.143 2 0 0 1 -1.719 1.969 l 0 0.031 -8 0 -0.344 0 -0.219 0 0 -0.031 a 2.143 2 0 0 1 -1.719 -1.969 2.143 2 0 0 1 1.719 -1.969 l 0 -0.031 0.281 0 a 3 2.8 0 0 1 -0.281 -1.188 a 3 2.8 0 0 1 2.781 -2.813 z" style="visibility:visible;fill:#ffca28;fill-opacity:1;stroke:none;display:inline;color:#000;fill-rule:nonzero"/>
 </g>
</svg>
