<svg xmlns="http://www.w3.org/2000/svg" viewBox="0 0 24 24">
 <g transform="translate(0,-1028.3622)">
  <path d="m 2.625 1032.36 c -0.347 0.063 -0.625 0.397 -0.625 0.75 l 0 14.5 c 0.006 0.391 0.359 0.744 0.75 0.75 l 18.5 0 c 0.391 -0.01 0.744 -0.359 0.75 -0.75 l 0 -12.438 c -0.006 -0.391 -0.359 -0.806 -0.75 -0.813 l -7.25 0 0 -1.25 c -0.006 -0.391 -0.359 -0.744 -0.75 -0.75 l -10.625 0 z m 7.375 4 3.5 0 3.5 6 -3.5 0 -3.5 -6 z m -0.469 0.563 1.469 3 -3.219 6.06 -1.563 -3.313 3.313 -5.75 z m 0.625 6.438 6.844 0 -1.719 3 -6.812 0 1.687 -3 z" style="visibility:visible;fill:#b9ff66;fill-opacity:1;stroke:none;display:inline;color:#000;fill-rule:nonzero"/>
 </g>
</svg>
