<svg xmlns="http://www.w3.org/2000/svg" viewBox="0 0 24 24">
 <g transform="translate(0,-1028.3622)">
  <path d="m 2.625 1032.36 c -0.347 0.063 -0.625 0.397 -0.625 0.75 l 0 14.5 c 0.006 0.391 0.359 0.744 0.75 0.75 l 18.5 0 c 0.391 -0.01 0.744 -0.359 0.75 -0.75 l 0 -12.438 c -0.006 -0.391 -0.359 -0.806 -0.75 -0.813 l -7.25 0 0 -1.25 c -0.006 -0.391 -0.359 -0.744 -0.75 -0.75 l -10.625 0 z m 12.687 3.844 c 1.482 0 2.688 1.193 2.688 2.625 0 1.064 -0.674 1.97 -1.625 2.375 -0.01 0 -0.021 0.021 -0.031 0.031 l -1.406 2.438 -0.031 0 c 0.253 0.315 0.406 0.698 0.406 1.125 0 1.025 -0.878 1.844 -1.938 1.844 -1.041 0 -1.878 -0.811 -1.906 -1.813 l -2.719 -1.156 c -0.322 0.232 -0.727 0.375 -1.156 0.375 -1.058 0 -1.906 -0.85 -1.906 -1.875 0 -1.023 0.848 -1.875 1.906 -1.875 1.06 0 1.938 0.852 1.938 1.875 l 2.687 1.156 c 0.229 -0.173 0.487 -0.316 0.781 -0.375 l 0 -2.813 c -0.239 -0.389 -0.375 -0.831 -0.375 -1.313 0 -1.434 1.203 -2.625 2.688 -2.625 z m 0 0.875 c -0.998 0 -1.781 0.787 -1.781 1.75 0 0.965 0.783 1.719 1.781 1.719 0.997 0 1.781 -0.753 1.781 -1.719 0 -0.963 -0.784 -1.75 -1.781 -1.75 z m 0 0.625 c 0.639 0 1.156 0.506 1.156 1.125 0 0.617 -0.517 1.094 -1.156 1.094 -0.638 0 -1.156 -0.477 -1.156 -1.094 0 -0.619 0.519 -1.125 1.156 -1.125 z m -7.719 3.344 c -0.771 0 -1.156 0.38 -1.156 1.125 0 0.747 0.385 1.125 1.156 1.125 0.097 0 0.197 -0.019 0.281 -0.031 l -0.5 -0.219 c -0.437 -0.178 -0.654 -0.671 -0.469 -1.094 0.185 -0.424 0.688 -0.617 1.125 -0.438 l 0.688 0.281 c -0.114 -0.5 -0.492 -0.75 -1.125 -0.75 z m 5.781 2.5 c -0.17 0 -0.321 0.037 -0.469 0.094 l 0.844 0.344 c 0.437 0.178 0.654 0.671 0.469 1.094 -0.185 0.425 -0.719 0.648 -1.156 0.469 l -0.906 -0.406 c 0.16 0.507 0.639 0.875 1.219 0.875 0.713 0 1.281 -0.53 1.281 -1.219 0 -0.689 -0.568 -1.25 -1.281 -1.25 z" style="visibility:visible;fill:#c4905e;fill-opacity:1;stroke:none;display:inline;color:#000;fill-rule:nonzero"/>
 </g>
</svg>
