<svg xmlns="http://www.w3.org/2000/svg" viewBox="0 0 24 24">
 <g transform="translate(0,-1028.3622)">
  <path d="m 2.625 1032.36 c -0.347 0.063 -0.625 0.397 -0.625 0.75 l 0 14.5 c 0.006 0.391 0.359 0.744 0.75 0.75 l 18.5 0 c 0.391 -0.01 0.744 -0.359 0.75 -0.75 l 0 -12.438 c -0.006 -0.391 -0.359 -0.806 -0.75 -0.813 l -7.25 0 0 -1.25 c -0.006 -0.391 -0.359 -0.744 -0.75 -0.75 l -10.625 0 z m 8.75 5 c 3.75 0 5.625 2.286 5.625 4 0 1.143 -0.625 4 -5 4 -1.25 0 -1.875 -0.576 -1.875 -1.719 0 -1.143 -0.625 -1.125 -1.25 -1.125 -0.625 0 -1.875 0 -1.875 -1.719 0 -1.714 1.879 -3.381 4.375 -3.438 z m -0.875 1 c -0.276 0 -0.5 0.224 -0.5 0.5 0 0.276 0.224 0.5 0.5 0.5 0.276 0 0.5 -0.224 0.5 -0.5 0 -0.276 -0.224 -0.5 -0.5 -0.5 z m 2 0 c -0.276 0 -0.5 0.224 -0.5 0.5 0 0.276 0.224 0.5 0.5 0.5 0.276 0 0.5 -0.224 0.5 -0.5 0 -0.276 -0.224 -0.5 -0.5 -0.5 z m -4 1 c -0.276 0 -0.5 0.224 -0.5 0.5 0 0.276 0.224 0.5 0.5 0.5 0.276 0 0.5 -0.224 0.5 -0.5 0 -0.276 -0.224 -0.5 -0.5 -0.5 z m 6 0 c -0.276 0 -0.5 0.224 -0.5 0.5 0 0.276 0.224 0.5 0.5 0.5 0.276 0 0.5 -0.224 0.5 -0.5 0 -0.276 -0.224 -0.5 -0.5 -0.5 z m -2.5 3 c -0.552 0 -1 0.448 -1 1 0 0.552 0.448 1 1 1 0.552 0 1 -0.448 1 -1 0 -0.552 -0.448 -1 -1 -1 z" style="visibility:visible;fill:#f57c00;fill-opacity:1;stroke:none;display:inline;color:#000;fill-rule:nonzero"/>
 </g>
</svg>
