<svg xmlns="http://www.w3.org/2000/svg" viewBox="0 0 24 24">
 <g transform="translate(0,-1028.3622)">
  <path d="m 2.625 1032.36 c -0.347 0.063 -0.625 0.397 -0.625 0.75 l 0 14.5 c 0.006 0.391 0.359 0.744 0.75 0.75 l 18.5 0 c 0.391 -0.01 0.744 -0.359 0.75 -0.75 l 0 -12.438 c -0.006 -0.391 -0.359 -0.806 -0.75 -0.813 l -7.25 0 0 -1.25 c -0.006 -0.391 -0.359 -0.744 -0.75 -0.75 l -10.625 0 z m 8.75 4 0.625 0 c 2.757 0 5 2.243 5 5 0 2.757 -2.243 5 -5.625 5 -2.133 0 -4.375 -2.243 -4.375 -5 0 -2.757 2.242 -5 4.375 -5 z m 0.063 0.719 c -0.194 0.026 -0.377 0.075 -0.563 0.125 l -0.594 0.938 c 0.05 0.01 0.123 0.026 0.188 0.062 0.313 0.179 0.442 0.353 0.531 0.375 0.089 0.022 0.478 -0.54 0.188 0.062 -0.29 0.603 -0.415 0.803 -0.75 0.938 -0.021 0.01 -0.042 -0.01 -0.063 0 -0.086 0.103 -0.199 0.215 -0.344 0.344 -0.316 0.282 -0.469 0.313 -0.469 0.594 0 0.281 0.002 0.5 -0.219 0.875 -0.221 0.375 -0.376 0.375 -0.281 0.656 0.095 0.281 0.158 0.781 0 0.563 -0.158 -0.219 -0.092 -0.656 -0.219 -0.406 -0.11 0.219 -0.386 0.306 -0.406 0.531 -0.003 0.03 -0.008 0.055 0 0.094 0.002 0.01 0.029 0.021 0.031 0.031 0.081 0.271 0.531 -0.12 0.531 0.094 0 0.219 -0.407 0.219 -0.313 0.406 0.095 0.187 0.466 -0.374 0.781 -0.281 0.316 0.094 0.122 0.156 0.406 0.281 0.284 0.125 0.437 0.25 0.437 0.438 0 0.188 0.876 0.094 0.781 0.406 -0.095 0.313 -0.185 0.25 -0.469 0.594 -0.157 0.189 -0.283 0.315 -0.375 0.406 0.129 0.094 0.162 0.144 0.313 0.094 0.201 -0.067 -0.063 -0.161 0.094 -0.25 0.039 -0.023 0.071 -0.043 0.094 -0.062 0.023 -0.019 0.046 -0.049 0.094 -0.062 0.095 -0.029 0.283 -0.062 0.719 -0.062 0.871 0 1.281 0.062 1.281 0.062 0 0 0.299 0 0.031 0.156 -0.196 0.114 -0.606 0.321 -0.656 0.375 0.02 0 0.075 -0.017 0.125 -0.031 0.402 -0.112 0.938 -0.205 1.094 -0.25 0.066 -0.019 0.433 -0.183 0.719 -0.313 0.012 -0.027 0.019 -0.067 0.031 -0.094 l -0.031 0 c -0.221 -0.095 -0.407 -0.53 -0.344 -0.656 0.063 -0.126 0.217 -0.216 0.375 -0.531 0.158 -0.316 0.129 -0.088 -0.313 -0.656 -0.442 -0.568 -0.654 0.033 -0.875 -0.156 -0.221 -0.189 -0.686 -0.372 -0.875 -0.719 -0.189 -0.348 -0.094 -0.09 -0.094 -0.469 0 -0.379 -0.032 -0.09 0.063 -0.406 0.095 -0.315 0.341 -0.341 0.656 -0.563 0.043 -0.032 0.081 -0.072 0.125 -0.094 -0.071 -0.067 -0.147 -0.209 -0.344 -0.406 0 0 0.186 -0.406 0.344 -0.469 0.153 -0.06 0.23 0 0.438 0.062 0.009 -0.034 0.022 -0.048 0.031 -0.125 0.032 -0.253 -0.094 -0.124 -0.094 -0.281 0 -0.158 0.06 0.001 0.281 -0.062 0.221 -0.063 0.217 -0.502 0.438 -0.438 0.221 0.063 0.217 -0.091 0.406 -0.375 0.189 -0.284 0.002 -0.124 -0.25 -0.25 -0.253 -0.126 -0.031 0.186 -0.094 0.406 -0.063 0.221 -0.248 0.098 -0.469 -0.375 -0.221 -0.474 -0.033 -0.278 0.094 -0.656 0.022 -0.067 0.031 -0.117 0.063 -0.156 -0.411 -0.179 -0.846 -0.27 -1.313 -0.313 -0.003 0.022 0.002 0.01 0 0.031 -0.045 0.424 -0.254 0.142 -0.344 0.188 -0.089 0.045 -0.688 0.87 -0.688 0.781 0 -0.089 0.094 -0.219 0.094 -0.219 0 0 0.04 -0.377 -0.031 -0.781 z m 1.719 1.688 c 0.039 -0.016 0.062 -0.01 0.094 0 0.096 0.015 0.171 0.094 0.219 0.188 0.025 0.051 -0.002 0.082 -0.031 0.094 0 0 0.063 0.094 0.063 0.125 0 0.031 -0.1 0.039 -0.25 0 -0.112 -0.029 -0.014 -0.069 0.063 -0.125 l -0.125 0 c -0.055 0 -0.08 -0.021 -0.094 -0.031 0.008 0.01 -0.014 0.015 0 0.031 0.071 0.087 0.009 0.039 -0.094 0.062 -0.103 0.024 -0.016 -0.069 0.031 -0.156 0 0 0.051 0.043 0.063 0.062 0.02 -0.043 0.063 -0.139 0.063 -0.25 z m 2.469 0.281 c -0.154 0.126 -0.343 0.375 -0.5 0.531 -0.284 0.284 0.155 0.312 0.313 0.344 0.158 0.031 0.309 -0.094 0.625 -0.094 -0.006 -0.015 -0.025 -0.016 -0.031 -0.031 -0.043 0 -0.073 0.031 -0.125 0.031 -0.185 0 -0.075 -0.185 -0.031 -0.438 -0.062 -0.122 -0.177 -0.229 -0.25 -0.344 z m -2.063 0.563 c -0.047 0.025 -0.127 0.091 -0.188 0.125 0.085 0.125 -0.174 0.47 -0.313 0.719 0.271 -0.045 0.681 0.045 1.625 0.281 0 0 0.343 -0.095 0.406 0.031 0.022 0.044 0.137 0.053 0.281 0.062 0.382 -0.15 0.188 -0.258 0.188 -0.563 0 -0.316 -0.469 0.033 -0.406 -0.125 0.063 -0.158 -0.06 -0.154 -0.281 -0.375 -0.221 -0.221 -0.186 0.564 -0.344 0.406 -0.158 -0.156 -0.156 -0.03 -0.219 -0.156 -0.063 -0.126 -0.281 -0.344 -0.281 -0.344 0 0 0.157 0.184 0.125 0.5 -0.032 0.315 -0.469 0 -0.469 0 0 0 0.061 -0.032 0.188 -0.062 0.126 -0.032 -0.03 -0.216 -0.125 -0.438 -0.024 -0.054 -0.033 -0.053 -0.063 -0.062 l -0.031 0 c -0.033 -0.01 -0.047 -0.025 -0.094 0 z m 2.75 1.563 c -0.035 0.026 -0.082 0.046 -0.125 0.062 -0.347 0.126 -0.594 0.406 -0.594 0.406 0 0 0.403 0 0.688 0.25 0.021 -0.172 0.031 -0.354 0.031 -0.531 0 -0.064 0.003 -0.123 0 -0.188 z" style="visibility:visible;fill:#f06292;fill-opacity:1;stroke:none;display:inline;color:#000;fill-rule:nonzero"/>
 </g>
</svg>
