<svg xmlns="http://www.w3.org/2000/svg" viewBox="0 0 24 24">
 <g transform="translate(0,-1028.3622)">
  <path d="m 2.625 1032.36 c -0.347 0.063 -0.625 0.397 -0.625 0.75 l 0 14.5 c 0.006 0.391 0.359 0.744 0.75 0.75 l 18.5 0 c 0.391 -0.01 0.744 -0.359 0.75 -0.75 l 0 -12.438 c -0.006 -0.391 -0.359 -0.806 -0.75 -0.813 l -7.25 0 0 -1.25 c -0.006 -0.391 -0.359 -0.744 -0.75 -0.75 l -10.625 0 z m 8.875 4 c 0.276 0 0.5 0.224 0.5 0.5 0 0.276 -0.224 0.5 -0.5 0.5 -0.276 0 -0.5 -0.224 -0.5 -0.5 0 -0.276 0.224 -0.5 0.5 -0.5 z m 4.375 0 c 0.089 0 0.164 0.012 0.25 0.031 0.003 0.01 0.029 -0.01 0.031 0 0.551 0.469 0.995 1.031 1.313 1.656 0.003 0.01 -0.003 0.021 0 0.031 0.079 0.207 0.169 0.424 0.25 0.688 0.045 0.147 0.095 0.307 0.156 0.469 0.068 0.32 0.125 0.662 0.125 1 0 2.939 -2.679 6.125 -6 6.125 -3.109 0 -5.686 -2.916 -6 -5.594 0.084 -0.036 1.741 -1.816 5.062 -0.469 4.03 1.637 5.832 0.01 6 -0.688 0.168 -0.693 -0.079 -2 -0.75 -2 -0.671 0 -1.487 0.323 -1.375 -0.469 0.07 -0.495 0.493 -0.771 0.938 -0.781 z m -1.875 2 c 0.552 0 1 0.448 1 1 0 0.552 -0.448 1 -1 1 -0.552 0 -1 -0.448 -1 -1 0 -0.552 0.448 -1 1 -1 z" style="visibility:visible;fill:#ffca28;fill-opacity:1;stroke:none;display:inline;color:#000;fill-rule:nonzero"/>
 </g>
</svg>
