<svg xmlns="http://www.w3.org/2000/svg" viewBox="0 0 64 64">
 <g transform="translate(0,-988.3622)">
  <path d="m 6.06 10 c -1.129 0.111 -2.081 1.178 -2.063 2.313 l 0 39.38 c -0.014 1.215 1.098 2.326 2.313 2.313 l 51.38 0 c 1.215 0.014 2.326 -1.098 2.313 -2.313 l 0 -35.37 c 0.014 -1.215 -1.098 -2.326 -2.313 -2.313 l -19.688 0 l 0 -1.688 c 0.014 -1.194 -1.056 -2.294 -2.25 -2.313 l -29.438 0 c -0.083 0 -0.167 0 -0.25 0 z m 33.688 12 c 3.278 0 5.969 2.732 5.969 6.094 c 0 2.498 -1.521 4.644 -3.625 5.594 c -0.022 0.008 -0.04 0.038 -0.063 0.063 l -3.125 5.719 l -0.063 0 c 0.559 0.74 0.906 1.655 0.906 2.656 c 0 2.404 -1.907 4.344 -4.25 4.344 c -2.302 0 -4.22 -1.9 -4.281 -4.25 l -5.938 -2.75 c -0.711 0.545 -1.613 0.906 -2.563 0.906 c -2.34 0 -4.281 -2 -4.281 -4.406 c 0 -2.401 1.942 -4.375 4.281 -4.375 c 2.343 0 4.25 1.975 4.25 4.375 l 5.906 2.719 c 0.507 -0.406 1.131 -0.736 1.781 -0.875 l 0 -6.594 c -0.528 -0.913 -0.875 -1.996 -0.875 -3.125 c 0 -3.365 2.687 -6.094 5.969 -6.094 z m 0 2.031 c -2.208 0 -3.938 1.802 -3.938 4.063 c 0 2.265 1.729 4.063 3.938 4.063 c 2.204 0 3.938 -1.798 3.938 -4.063 c 0 -2.261 -1.733 -4.063 -3.938 -4.063 z m 0 1.469 c 1.414 0 2.563 1.142 2.563 2.594 c 0 1.448 -1.149 2.594 -2.563 2.594 c -1.41 0 -2.563 -1.147 -2.563 -2.594 c 0 -1.452 1.153 -2.594 2.563 -2.594 z m -17.03 7.844 c -1.705 0 -2.563 0.877 -2.563 2.625 c 0 1.752 0.858 2.656 2.563 2.656 c 0.213 0 0.376 -0.032 0.563 -0.063 l -1.094 -0.563 c -0.967 -0.418 -1.441 -1.571 -1.031 -2.563 c 0.41 -0.993 1.533 -1.422 2.5 -1 l 1.5 0.688 c -0.253 -1.173 -1.038 -1.781 -2.438 -1.781 z m 12.781 5.844 c -0.375 0 -0.736 0.084 -1.063 0.219 l 1.844 0.844 c 0.967 0.417 1.441 1.571 1.031 2.563 c -0.41 0.996 -1.533 1.484 -2.5 1.063 l -2.031 -0.906 c 0.354 1.19 1.438 2.031 2.719 2.031 c 1.578 0 2.813 -1.258 2.813 -2.875 c 0 -1.617 -1.235 -2.938 -2.813 -2.938 z" transform="translate(0,988.3622)" style="visibility:visible;fill:#c4905e;fill-opacity:1;stroke:none;display:inline;color:#000;fill-rule:nonzero"/>
 </g>
</svg>
