<svg xmlns="http://www.w3.org/2000/svg" viewBox="0 0 64 64">
 <g transform="translate(0,-988.3622)">
  <path d="m 6.06 10 c -1.129 0.111 -2.081 1.178 -2.063 2.313 l 0 39.38 c -0.014 1.215 1.098 2.326 2.313 2.313 l 51.38 0 c 1.215 0.014 2.326 -1.098 2.313 -2.313 l 0 -35.37 c 0.014 -1.215 -1.098 -2.326 -2.313 -2.313 l -19.688 0 l 0 -1.688 c 0.014 -1.194 -1.056 -2.294 -2.25 -2.313 l -29.438 0 c -0.083 -0.005 -0.167 -0.005 -0.25 0 z m 34.969 14 c 0.207 -0.002 0.424 0.015 0.625 0.063 c 0.006 0.014 0.025 -0.013 0.031 0 c 1.286 1.125 2.321 2.469 3.063 3.969 c 0.008 0.017 -0.008 0.047 0 0.063 c 0.184 0.497 0.404 1.023 0.594 1.656 c 0.106 0.353 0.262 0.768 0.406 1.156 c 0.158 0.768 0.25 1.565 0.25 2.375 c 0 7.05 -6.281 14.719 -14.03 14.719 c -7.255 0 -13.235 -6.98 -13.969 -13.406 c 0.195 -0.086 4.063 -4.391 11.813 -1.156 c 9.412 3.929 13.577 0.007 13.969 -1.656 c 0.392 -1.663 -0.121 -4.75 -1.688 -4.75 c -1.566 0 -3.542 0.713 -3.281 -1.188 c 0.163 -1.188 1.182 -1.828 2.219 -1.844 z m -10.03 2 c 0.552 0 1 0.448 1 1 c 0 0.552 -0.448 1 -1 1 c -0.552 0 -1 -0.448 -1 -1 c 0 -0.552 0.448 -1 1 -1 z m 5 2 c 1.105 0 2 0.895 2 2 c 0 1.105 -0.895 2 -2 2 c -1.105 0 -2 -0.895 -2 -2 c 0 -1.105 0.895 -2 2 -2 z" transform="translate(0,988.3622)" style="visibility:visible;fill:#66bb6a;fill-opacity:1;stroke:none;display:inline;color:#000;fill-rule:nonzero"/>
 </g>
</svg>
