<svg xmlns="http://www.w3.org/2000/svg" viewBox="0 0 64 64">
 <g transform="translate(0,-988.3622)">
  <path d="m 6.06 10 c -1.129 0.111 -2.081 1.178 -2.063 2.313 l 0 39.38 c -0.014 1.215 1.098 2.326 2.313 2.313 l 51.38 0 c 1.215 0.014 2.326 -1.098 2.313 -2.313 l 0 -35.37 c 0.014 -1.215 -1.098 -2.326 -2.313 -2.313 l -19.688 0 l 0 -1.688 c 0.014 -1.194 -1.056 -2.294 -2.25 -2.313 l -29.438 0 c -0.083 0 -0.167 0 -0.25 0 z m 21.938 12 l 12 0 c 2.216 0 4 1.747 4 3.906 c 0.002 0.032 0 0.062 0 0.094 l 0 0.094 l 0 15.906 c 0 2.209 -1.791 4 -4 4 c -2.209 0 -4 -1.791 -4 -4 c 0 -2.209 1.791 -4 4 -4 l 0 -8 l -12 0 l 0 12 c 0 0.16 -0.044 0.314 -0.063 0.469 c -0.233 1.987 -1.888 3.531 -3.938 3.531 c -2.209 0 -4 -1.791 -4 -4 c 0 -2.209 1.791 -4 4 -4 l 0 -11 c 0 -0.163 0.028 -0.318 0.063 -0.469 c -0.017 -0.147 -0.063 -0.286 -0.063 -0.438 l 0 -0.188 c 0 -2.159 1.784 -3.906 4 -3.906 z" transform="translate(0,988.3622)" style="visibility:visible;fill:#66bb6a;fill-opacity:1;stroke:none;display:inline;color:#000;fill-rule:nonzero"/>
 </g>
</svg>
