<svg xmlns="http://www.w3.org/2000/svg" viewBox="0 0 64 64">
 <g transform="translate(0,-988.3622)">
  <path d="m 6.06 10 c -1.129 0.111 -2.081 1.178 -2.063 2.313 l 0 39.38 c -0.014 1.215 1.098 2.326 2.313 2.313 l 51.38 0 c 1.215 0.014 2.326 -1.098 2.313 -2.313 l 0 -35.37 c 0.014 -1.215 -1.098 -2.326 -2.313 -2.313 l -19.688 0 l 0 -1.688 c 0.014 -1.194 -1.056 -2.294 -2.25 -2.313 l -29.438 0 c -0.083 0 -0.167 0 -0.25 0 z m 29.938 10 c 5.523 0 10 4.477 10 10 c 0 5.523 -4.477 10 -10 10 c -2.096 0 -4.049 -0.648 -5.656 -1.75 c -0.098 0.241 -0.242 0.492 -0.438 0.688 l -8.5 8.469 c -0.783 0.783 -2.029 0.783 -2.813 0 c -0.783 -0.783 -0.783 -2.029 0 -2.813 l 8.469 -8.5 c 0.196 -0.196 0.447 -0.34 0.688 -0.438 c -1.102 -1.607 -1.75 -3.56 -1.75 -5.656 c 0 -5.523 4.477 -10 10 -10 z m 0 3 c -3.866 0 -7 3.134 -7 7 c 0 3.866 3.134 7 7 7 c 3.866 0 7 -3.134 7 -7 c 0 -3.866 -3.134 -7 -7 -7 z" transform="translate(0,988.3622)" style="visibility:visible;fill:#66bb6a;fill-opacity:1;stroke:none;display:inline;color:#000;fill-rule:nonzero"/>
 </g>
</svg>
