<svg xmlns="http://www.w3.org/2000/svg" viewBox="0 0 64 64">
 <g transform="translate(0,-988.3622)">
  <path d="m 6.06 10 c -1.129 0.111 -2.081 1.178 -2.063 2.313 l 0 39.38 c -0.014 1.215 1.098 2.326 2.313 2.313 l 51.38 0 c 1.215 0.014 2.326 -1.098 2.313 -2.313 l 0 -35.37 c 0.014 -1.215 -1.098 -2.326 -2.313 -2.313 l -19.688 0 l 0 -1.688 c 0.014 -1.194 -1.056 -2.294 -2.25 -2.313 l -29.438 0 c -0.083 -0.005 -0.167 -0.005 -0.25 0 z m 29.781 12 c 2.809 0 5.125 2.198 5.125 4.938 c -0.032 0.958 -0.053 2.01 -0.656 4.625 c -0.111 0.343 -0.312 0.709 -0.594 1.094 c -0.253 0.346 -0.579 0.703 -0.875 1.063 c -0.064 0.657 -0.061 1.343 0 2 c 0.82 0.688 2.316 1.325 3.688 1.906 c 0.706 0.299 1.362 0.577 1.875 0.906 c 0.257 0.165 0.482 0.322 0.656 0.531 c 0.163 0.196 0.265 0.446 0.281 0.719 c 0.001 0.018 0 0.044 0 0.063 l 0.656 4.813 l 0 0.063 c 0 0.597 -0.387 1.081 -0.938 1.469 c -0.55 0.388 -1.311 0.698 -2.219 0.969 c -1.816 0.542 -4.279 0.844 -7 0.844 c -2.721 0 -5.184 -0.302 -7 -0.844 c -0.908 -0.271 -1.637 -0.581 -2.188 -0.969 c -0.55 -0.388 -0.938 -0.872 -0.938 -1.469 l 0 -0.063 l 0.594 -4.813 c 0 -0.027 0.061 -0.035 0.063 -0.063 c 0.034 -0.571 0.384 -1.01 0.875 -1.344 c 0.515 -0.35 1.169 -0.617 1.875 -0.906 c 1.355 -0.554 2.853 -1.162 3.688 -1.813 c 0.108 -0.764 0.093 -1.383 0 -2.094 c -0.304 -0.337 -0.627 -0.712 -0.875 -1.031 c -0.277 -0.356 -0.423 -0.699 -0.531 -1.031 l -0.063 0 c -0.535 -2.515 -0.604 -3.685 -0.625 -4.625 c 0 -2.739 2.316 -4.938 5.125 -4.938 z m -9.531 0.906 c 1.046 0 2.045 0.427 2.781 1.031 l 0.219 0.094 l -0.125 0.25 c -0.133 0.419 -0.219 0.868 -0.219 1.25 c 0.02 0.909 0.065 1.922 0.594 4.406 c 0.078 0.241 0.077 0.437 0.125 0.719 l 0.063 0.125 l -0.063 0.125 c -0.142 0.344 -0.455 0.95 -0.875 1.531 c -0.002 0.018 0.002 0.013 0 0.031 c -0.057 0.557 -0.053 1.159 0 1.719 c 0.275 0.222 0.594 0.469 1.031 0.688 l 0.625 0.281 l -0.625 0.313 c -1.107 0.592 -2.471 1.045 -3.563 1.531 c -0.546 0.243 -1.035 0.504 -1.344 0.75 c -0.309 0.246 -0.438 0.49 -0.438 0.688 l -0.594 4.813 c 0 0.018 0.001 0.044 0 0.063 c -0.006 0.126 -0.021 0.252 -0.063 0.375 c -0.023 0.071 -0.071 0.172 -0.125 0.25 c -0.027 0.038 -0.092 0.052 -0.156 0.094 c -0.052 0.033 -0.134 0.063 -0.219 0.063 l -0.063 0 c -1.558 -0.165 -2.847 -0.44 -3.75 -0.844 c -0.458 -0.205 -0.824 -0.472 -1.094 -0.75 c -0.27 -0.278 -0.438 -0.601 -0.438 -0.969 l 0 -0.031 l 0.563 -3.938 c 0 -0.028 0.029 -0.004 0.031 -0.031 c 0.034 -0.461 0.32 -0.886 0.719 -1.156 c 0.422 -0.286 0.922 -0.484 1.5 -0.719 c 1.116 -0.453 2.35 -0.932 3.03 -1.469 c 0.084 -0.611 0.074 -1.181 0 -1.75 c -0.245 -0.272 -0.516 -0.616 -0.719 -0.875 c -0.231 -0.296 -0.411 -0.506 -0.5 -0.781 l 0 -0.063 c -0.439 -2.063 -0.483 -2.949 -0.5 -3.719 c 0 -2.248 1.881 -4.094 4.188 -4.094 z" transform="translate(0,988.3622)" style="visibility:visible;fill:#bdbdbd;fill-opacity:1;stroke:none;display:inline;color:#000;fill-rule:nonzero"/>
 </g>
</svg>
