<svg xmlns="http://www.w3.org/2000/svg" viewBox="0 0 32 32">
 <path d="m 1.031 12 c -0.565 0.055 -1.04 0.589 -1.031 1.156 l 0 17.688 c -0.007 0.607 0.549 1.163 1.156 1.156 l 16.844 0 l 0 -4 l -6 0 l 0 -10 l 6 0 l 0 -4 l -2 0 l 0 -0.844 c 0.007 -0.597 -0.528 -1.147 -1.125 -1.156 l -13.719 0 c -0.042 -0.002 -0.083 -0.002 -0.125 0 z" style="visibility:visible;fill:#c4905e;opacity:0.4;fill-opacity:1;stroke:none;display:inline;color:#000;fill-rule:nonzero"/>
 <path d="m 5.03 0 c -0.565 0.055 -1.04 0.589 -1.031 1.156 l 0 17.688 c -0.007 0.607 0.549 1.163 1.156 1.156 l 6.844 0 l 0 -2 l 6 0 l 0 -6 l 10 0 l 0 6 l 4 0 l 0 -14.844 c 0.007 -0.607 -0.549 -1.163 -1.156 -1.156 l -10.844 0 l 0 -0.844 c 0.007 -0.597 -0.528 -1.147 -1.125 -1.156 l -13.719 0 c -0.042 -0.002 -0.083 -0.002 -0.125 0 z" style="visibility:visible;fill:#c4905e;fill-opacity:1;stroke:none;display:inline;color:#000;fill-rule:nonzero"/>
 <path d="m 32 20 l -6 0 l 0 -6 l -6 0 l 0 6 l -6 0 l 0 6 l 6 0 l 0 6 l 6 0 l 0 -6 l 6 0 Z" style="fill:#859900"/>
</svg>
