<svg xmlns="http://www.w3.org/2000/svg" viewBox="0 0 24 24">
 <path d="m 1.625 9 c -0.347 0.064 -0.625 0.397 -0.625 0.75 l 0 12.5 c 0.006 0.391 0.359 0.744 0.75 0.75 l 12.25 0 l 0 -3 -4 0 0 -6 4 0 0 -3 -3 0 0 -1.25 c -0.006 -0.391 -0.359 -0.744 -0.75 -0.75 l -8.625 0 z" style="visibility:visible;fill:#bdbdbd;opacity:0.4;fill-opacity:1;stroke:none;display:inline;color:#000;fill-rule:nonzero"/>
 <path d="m 5.625 1 c -0.347 0.064 -0.625 0.397 -0.625 0.75 l 0 12.5 c 0.006 0.391 0.359 0.744 0.75 0.75 l 4.25 0 l 0 -1 4 0 0 -4 6 0 0 4 3 0 0 -10.188 c -0.006 -0.391 -0.359 -0.806 -0.75 -0.813 l -7.25 0 0 -1.25 c -0.006 -0.391 -0.359 -0.744 -0.75 -0.75 l -8.625 0 z" style="visibility:visible;fill:#bdbdbd;fill-opacity:1;stroke:none;display:inline;color:#000;fill-rule:nonzero"/>
 <path d="m 23 15 -4 0 0 -4 -4 0 0 4 -4 0 0 4 4 0 0 4 4 0 0 -4 4 0 z" style="fill:#859900"/>
</svg>
