<svg xmlns="http://www.w3.org/2000/svg" viewBox="0 0 48 48">
 <g transform="translate(0,-1004.3622)">
  <path d="m 5.188 8 c -0.676 0.144 -1.203 0.809 -1.188 1.5 l 0 28 c 0 0.785 0.715 1.5 1.5 1.5 l 37 0 c 0.785 0 1.5 -0.715 1.5 -1.5 l 0 -24.969 c 0 -0.785 -0.715 -1.5 -1.5 -1.5 l -14.5 0 l 0 -1.531 c 0 -0.785 -0.715 -1.5 -1.5 -1.5 l -21 0 c -0.104 -0.011 -0.209 -0.011 -0.313 0 z m 11.688 9.406 c 0.55 -0.009 1.113 0.045 1.656 0.094 c 2.646 0.3 5.268 1.329 7.219 3.188 c 0.604 -0.114 1.231 -0.246 1.844 -0.344 c 0.903 -0.119 1.821 0.269 2.406 0.969 c 0.725 0.898 1.443 1.783 2.156 2.688 c 0.364 0.473 0.112 1.228 -0.469 1.344 c -0.981 0.177 -1.99 0.325 -2.969 0.5 c 0.059 0.802 -0.112 1.637 -0.594 2.281 c -0.54 0.756 -1.46 1.199 -2.375 1.313 c -0.027 0.691 0.059 1.394 0.063 2.094 c -0.005 0.332 0.057 0.674 -0.031 1 c -0.145 0.495 -0.787 0.776 -1.25 0.531 c -1.01 -0.518 -2 -1.01 -3 -1.531 c -0.841 -0.449 -1.415 -1.36 -1.438 -2.313 c -0.001 -0.545 -0.011 -1.113 0 -1.656 c 0.028 -0.13 -0.08 -0.147 -0.156 -0.219 c -2.074 -1.562 -3.488 -3.89 -4.25 -6.344 c -0.299 -1.07 -0.571 -2.228 -0.406 -3.344 c 0.524 -0.182 1.044 -0.24 1.594 -0.25 z m 3.313 2.031 c -0.639 0.058 -1.276 0.374 -1.719 0.906 c -0.886 1.064 -0.72 2.645 0.344 3.531 c 1.064 0.886 2.645 0.72 3.531 -0.344 c 0.886 -1.064 0.72 -2.645 -0.344 -3.531 c -0.532 -0.443 -1.173 -0.62 -1.813 -0.563 z m 0.063 0.844 c 0.426 -0.039 0.864 0.079 1.219 0.375 c 0.71 0.591 0.81 1.634 0.219 2.344 c -0.591 0.71 -1.634 0.81 -2.344 0.219 c -0.71 -0.591 -0.81 -1.634 -0.219 -2.344 c 0.296 -0.355 0.699 -0.555 1.125 -0.594 z m 10.156 6.813 c 0.073 0.007 0.156 0.045 0.219 0.094 c 0.534 0.44 1.067 0.869 1.594 1.313 c 0.265 0.212 0.138 0.686 -0.188 0.75 c -0.263 0.04 -0.517 0.063 -0.781 0.094 c 0.262 0.609 0.526 1.201 0.781 1.813 c 0.124 0.29 -0.164 0.657 -0.469 0.594 c -0.646 -0.143 -1.285 -0.329 -1.938 -0.469 c 0.024 0.263 0.054 0.547 0.063 0.813 c -0.004 0.334 -0.338 0.561 -0.594 0.344 c -0.526 -0.434 -1.132 -0.939 -1.656 -1.375 c -0.255 -0.204 -0.186 -0.621 0.125 -0.719 c 1.194 -0.506 2.096 -1.607 2.375 -2.875 c 0.032 -0.229 0.25 -0.395 0.469 -0.375 z" transform="translate(0,1004.3622)" style="visibility:visible;fill:#8d6e63;fill-opacity:1;stroke:none;display:inline;color:#000;fill-rule:nonzero"/>
 </g>
</svg>
