<svg xmlns="http://www.w3.org/2000/svg" viewBox="0 0 48 48">
 <g transform="translate(0,-1004.3622)">
  <path d="m 5.188 8 c -0.676 0.144 -1.203 0.809 -1.188 1.5 l 0 28 c 0 0.785 0.715 1.5 1.5 1.5 l 37 0 c 0.785 0 1.5 -0.715 1.5 -1.5 l 0 -24.969 c 0 -0.785 -0.715 -1.5 -1.5 -1.5 l -14.5 0 l 0 -1.531 c 0 -0.785 -0.715 -1.5 -1.5 -1.5 l -21 0 c -0.104 -0.011 -0.209 -0.011 -0.313 0 z m 18.813 9 c 1.108 0 2 0.892 2 2 l 0 5 2 0 c 1 0 1 0 0 1 l -3 3 c -1 1 -1 1 -2 0 l -3 -3 c -1 -1 -0.894 -1.447 0 -1 l 2 0 0 -5 c 0 -1.108 0.892 -2 2 -2 z m -7 8 c 0.554 0 1 0.446 1 1 l 0 4 12 0 0 -4 c 0 -0.554 0.446 -1 1 -1 0.554 0 1 0.446 1 1 l 0 5 c 0 0.416 -0.266 0.755 -0.625 0.906 c -0.12 0.05 -0.236 0.094 -0.375 0.094 l -14 0 c -0.554 0 -1 -0.446 -1 -1 l 0 -5 c 0 -0.554 0.446 -1 1 -1 z" transform="translate(0,1004.3622)" style="visibility:visible;fill:#b9ff66;fill-opacity:1;stroke:none;display:inline;color:#000;fill-rule:nonzero"/>
 </g>
</svg>
