<svg xmlns="http://www.w3.org/2000/svg" viewBox="0 0 48 48">
 <g transform="translate(0,-1004.3622)">
  <path d="m 5.188 8 c -0.676 0.144 -1.203 0.809 -1.188 1.5 l 0 28 c 0 0.785 0.715 1.5 1.5 1.5 l 37 0 c 0.785 0 1.5 -0.715 1.5 -1.5 l 0 -24.969 c 0 -0.785 -0.715 -1.5 -1.5 -1.5 l -14.5 0 l 0 -1.531 c 0 -0.785 -0.715 -1.5 -1.5 -1.5 l -21 0 c -0.104 -0.011 -0.209 -0.011 -0.313 0 z m 21.281 9 c 1.416 -0.004 2.824 0.542 3.906 1.625 c 2.165 2.166 2.165 5.678 0 7.844 c -1.841 1.842 -4.648 2.103 -6.781 0.813 l -5.344 5.344 c -0.498 0.499 -1.283 0.499 -1.781 0 l -0.094 -0.094 c -0.498 -0.498 -0.498 -1.283 0 -1.781 l 5.344 -5.344 c -1.287 -2.131 -1.029 -4.94 0.813 -6.781 c 1.083 -1.084 2.521 -1.621 3.938 -1.625 z m 0 1.719 c -0.976 0.004 -1.974 0.38 -2.719 1.125 c -1.476 1.476 -1.481 3.851 -0.031 5.344 c 0.013 0.014 0.018 0.015 0.031 0.031 l 0.063 0.063 c 1.492 1.448 3.868 1.445 5.344 -0.031 c 1.489 -1.489 1.489 -3.916 0 -5.406 c -0.745 -0.744 -1.711 -1.129 -2.688 -1.125 z" transform="translate(0,1004.3622)" style="visibility:visible;fill:#b9ff66;fill-opacity:1;stroke:none;display:inline;color:#000;fill-rule:nonzero"/>
 </g>
</svg>
