<svg xmlns="http://www.w3.org/2000/svg" viewBox="0 0 48 48">
 <g transform="translate(0,-1004.3622)">
  <path d="m 5.188 8 c -0.676 0.144 -1.203 0.809 -1.188 1.5 l 0 28 c 0 0.785 0.715 1.5 1.5 1.5 l 37 0 c 0.785 0 1.5 -0.715 1.5 -1.5 l 0 -24.969 c 0 -0.785 -0.715 -1.5 -1.5 -1.5 l -14.5 0 l 0 -1.531 c 0 -0.785 -0.715 -1.5 -1.5 -1.5 l -21 0 c -0.104 -0.011 -0.209 -0.011 -0.313 0 z m 12.813 9 l 12 0 c 1.108 0 2 0.892 2 2 l 0 9 c 0 1.108 -0.892 2 -2 2 l -4 0 l 2 2 c 1 1 1 1 0 1 l -8 0 c -1 0 -1 0 0 -1 l 2 -2 l -4 0 c -1.108 0 -2 -0.892 -2 -2 l 0 -9 c 0 -1.108 0.892 -2 2 -2 z m 0 2 l 0 9 l 12 0 l 0 -9 l -12 0 z m 2.844 1 c 0.094 -0.016 0.156 0 0.156 0 l 3 0 l 2 2 l 0 4 c 0 0 0 1 -1 1 l -4 0 c 0 0 -1 0 -1 -1 l 0 -5 c 0 -0.75 0.562 -0.953 0.844 -1 z m 0.156 1 l 0 5 l 4 0 l 0 -3 l -2 0 l 0 -2 l -2 0 z" transform="translate(0,1004.3622)" style="visibility:visible;fill:#7e57c2;fill-opacity:1;stroke:none;display:inline;color:#000;fill-rule:nonzero"/>
 </g>
</svg>
