<svg xmlns="http://www.w3.org/2000/svg" viewBox="0 0 48 48">
 <g transform="translate(0,-1004.3622)">
  <path d="m 5.188 8 c -0.676 0.144 -1.203 0.809 -1.188 1.5 l 0 28 c 0 0.785 0.715 1.5 1.5 1.5 l 37 0 c 0.785 0 1.5 -0.715 1.5 -1.5 l 0 -24.969 c 0 -0.785 -0.715 -1.5 -1.5 -1.5 l -14.5 0 l 0 -1.531 c 0 -0.785 -0.715 -1.5 -1.5 -1.5 l -21 0 c -0.104 -0.011 -0.209 -0.011 -0.313 0 z m 12.813 9 l 12 0 c 1.108 0 2 0.892 2 2 l 0 11 l 0 1 c 0 1.108 -0.892 2 -2 2 l -12 0 c -1.108 0 -2 -0.892 -2 -2 l 0 -4 l 0 -8 c 0 -1.108 0.892 -2 2 -2 z m 0 2 l 0 6 l 3 -3 l 3.281 3.688 l 2.219 -2.188 l 3.5 4.125 l 0 -8.625 l -12 0 z" transform="translate(0,1004.3622)" style="visibility:visible;fill:#ef5350;fill-opacity:1;stroke:none;display:inline;color:#000;fill-rule:nonzero"/>
 </g>
</svg>
