<svg xmlns="http://www.w3.org/2000/svg" viewBox="0 0 48 48">
 <g transform="translate(0,-1004.3622)">
  <path d="m 5.188 8 c -0.676 0.144 -1.203 0.809 -1.188 1.5 l 0 28 c 0 0.785 0.715 1.5 1.5 1.5 l 37 0 c 0.785 0 1.5 -0.715 1.5 -1.5 l 0 -24.969 c 0 -0.785 -0.715 -1.5 -1.5 -1.5 l -14.5 0 l 0 -1.531 c 0 -0.785 -0.715 -1.5 -1.5 -1.5 l -21 0 c -0.104 -0.011 -0.209 -0.011 -0.313 0 z m 23.875 9.625 c 2.163 0 3.938 1.722 3.938 3.813 c 0 1.56 -0.977 2.913 -2.375 3.5 l -2.125 3.563 c 0.354 0.455 0.563 1.016 0.563 1.625 c 0 1.495 -1.266 2.719 -2.813 2.719 c -1.522 0 -2.776 -1.191 -2.813 -2.656 l -3.938 -1.719 c -0.473 0.349 -1.051 0.563 -1.688 0.563 c -1.544 0 -2.813 -1.223 -2.813 -2.719 c 0 -1.493 1.269 -2.719 2.813 -2.719 c 1.535 0 2.794 1.21 2.813 2.688 c 0 0.011 0 0.02 0 0.031 l 3.906 1.688 c 0.337 -0.257 0.723 -0.445 1.156 -0.531 l 0 -4.125 c -0.343 -0.564 -0.563 -1.209 -0.563 -1.906 c 0 -2.093 1.771 -3.813 3.938 -3.813 z m 0 1.281 c -1.457 0 -2.625 1.125 -2.625 2.531 c 0 1.409 1.168 2.531 2.625 2.531 c 1.454 0 2.625 -1.122 2.625 -2.531 c 0 -1.406 -1.17 -2.531 -2.625 -2.531 z m 0 0.875 c 0.933 0 1.688 0.722 1.688 1.625 c 0 0.901 -0.754 1.656 -1.688 1.656 c -0.93 0 -1.688 -0.756 -1.688 -1.656 c 0 -0.903 0.757 -1.625 1.688 -1.625 z m -11.25 4.906 c -1.125 0 -1.688 0.538 -1.688 1.625 c 0 1.09 0.563 1.625 1.688 1.625 c 0.154 0 0.305 0.02 0.438 0 l -0.813 -0.375 c -0.638 -0.26 -0.927 -0.946 -0.656 -1.563 c 0.271 -0.62 1.018 -0.919 1.656 -0.656 l 1 0.438 c -0.167 -0.727 -0.703 -1.094 -1.625 -1.094 z m 8.438 3.625 c -0.235 0 -0.45 0.05 -0.656 0.125 l 1.188 0.531 c 0.638 0.26 0.958 0.977 0.688 1.594 c -0.271 0.62 -1.018 0.919 -1.656 0.656 l -1.375 -0.594 c 0.218 0.764 0.949 1.313 1.813 1.313 c 1.041 0 1.875 -0.807 1.875 -1.813 c 0 -1.01 -0.834 -1.813 -1.875 -1.813 z" transform="translate(0,1004.3622)" style="visibility:visible;fill:#ef5350;fill-opacity:1;stroke:none;display:inline;color:#000;fill-rule:nonzero"/>
 </g>
</svg>
