<svg xmlns="http://www.w3.org/2000/svg" viewBox="0 0 48 48">
 <g transform="translate(0,-1004.3622)">
  <path d="m 5.188 8 c -0.676 0.144 -1.203 0.809 -1.188 1.5 l 0 28 c 0 0.785 0.715 1.5 1.5 1.5 l 37 0 c 0.785 0 1.5 -0.715 1.5 -1.5 l 0 -24.969 c 0 -0.785 -0.715 -1.5 -1.5 -1.5 l -14.5 0 l 0 -1.531 c 0 -0.785 -0.715 -1.5 -1.5 -1.5 l -21 0 c -0.104 -0.011 -0.209 -0.011 -0.313 0 z m 25.09 7.938 c 0.146 -0.002 0.296 -0.004 0.438 0.031 0.004 0.01 0.027 -0.01 0.031 0 0.909 0.847 1.632 1.872 2.156 3 0.006 0.013 -0.006 0.05 0 0.063 0.13 0.374 0.272 0.774 0.406 1.25 0.075 0.266 0.179 0.552 0.281 0.844 0.112 0.578 0.188 1.172 0.188 1.781 0 5.308 -4.429 11.09 -9.906 11.09 -5.127 0 -9.357 -5.258 -9.875 -10.09 0.138 -0.065 2.867 -3.278 8.344 -0.844 6.652 2.957 9.598 -0.029 9.875 -1.281 0.277 -1.252 -0.08 -3.563 -1.188 -3.563 -1.107 0 -2.497 0.524 -2.313 -0.906 0.115 -0.894 0.83 -1.363 1.563 -1.375 z m -3.781 1.063 c 0.276 0 0.5 0.224 0.5 0.5 0 0.276 -0.224 0.5 -0.5 0.5 -0.276 0 -0.5 -0.224 -0.5 -0.5 0 -0.276 0.224 -0.5 0.5 -0.5 z m 2.5 3 c 0.552 0 1 0.448 1 1 0 0.552 -0.448 1 -1 1 -0.552 0 -1 -0.448 -1 -1 0 -0.552 0.448 -1 1 -1 z" transform="translate(0,1004.3622)" style="visibility:visible;fill:#ffca28;fill-opacity:1;stroke:none;display:inline;color:#000;fill-rule:nonzero"/>
 </g>
</svg>
